<svg xmlns="http://www.w3.org/2000/svg" xmlns:xlink="http://www.w3.org/1999/xlink" contentStyleType="text/css" data-diagram-type="DESCRIPTION" height="504px" preserveAspectRatio="none" style="width:1512px;height:504px;background:#FFFFFF;" version="1.1" viewBox="0 0 1512 504" width="1512px" zoomAndPan="magnify"><?plantuml 1.2026.5?><defs/><g><!--cluster PsiSoft--><g class="cluster" data-qualified-name="PsiSoft" data-source-line="32" id="ent0001"><rect fill="#F0F8FF" height="346.25" rx="6" ry="6" style="stroke:#888888;stroke-width:1;" width="752" x="84" y="7"/><text fill="#000000" font-family="sans-serif" font-size="14" font-weight="700" lengthAdjust="spacing" textLength="148.0459" x="385.9771" y="21.9951">Plataforma PsiSoft</text></g><!--cluster Externos--><g class="cluster" data-qualified-name="Externos" data-source-line="85" id="ent0028"><rect fill="#F0F8FF" height="113.59" rx="6" ry="6" style="stroke:#888888;stroke-width:1;" width="927" x="7" y="377.25"/><text fill="#000000" font-family="sans-serif" font-size="14" font-weight="700" lengthAdjust="spacing" textLength="141.1348" x="399.9326" y="392.2451">Servi&#231;os Externos</text></g><!--entity UI--><g class="entity" data-qualified-name="PsiSoft.UI" data-source-line="34" id="ent0002"><rect fill="#EFF4FB" height="46.2969" rx="2.5" ry="2.5" style="stroke:#2C5F9E;stroke-width:0.5;" width="121.9355" x="537.03" y="42"/><rect fill="#EFF4FB" height="10" style="stroke:#2C5F9E;stroke-width:0.5;" width="15" x="638.9655" y="47"/><rect fill="#EFF4FB" height="2" style="stroke:#2C5F9E;stroke-width:0.5;" width="4" x="636.9655" y="49"/><rect fill="#EFF4FB" height="2" style="stroke:#2C5F9E;stroke-width:0.5;" width="4" x="636.9655" y="53"/><text fill="#000000" font-family="Arial" font-size="14" lengthAdjust="spacing" textLength="81.9355" x="552.03" y="74.9951">Frontend UI</text></g><!--entity Agendamento--><g class="entity" data-qualified-name="PsiSoft.Agendamento" data-source-line="35" id="ent0003"><rect fill="#EFF4FB" height="46.2969" rx="2.5" ry="2.5" style="stroke:#2C5F9E;stroke-width:0.5;" width="138.5947" x="480.7" y="160.42"/><rect fill="#EFF4FB" height="10" style="stroke:#2C5F9E;stroke-width:0.5;" width="15" x="599.2947" y="165.42"/><rect fill="#EFF4FB" height="2" style="stroke:#2C5F9E;stroke-width:0.5;" width="4" x="597.2947" y="167.42"/><rect fill="#EFF4FB" height="2" style="stroke:#2C5F9E;stroke-width:0.5;" width="4" x="597.2947" y="171.42"/><text fill="#000000" font-family="Arial" font-size="14" lengthAdjust="spacing" textLength="98.5947" x="495.7" y="193.4151">Agendamento</text></g><!--entity Consulta--><g class="entity" data-qualified-name="PsiSoft.Consulta" data-source-line="36" id="ent0004"><rect fill="#EFF4FB" height="46.2969" rx="2.5" ry="2.5" style="stroke:#2C5F9E;stroke-width:0.5;" width="101.3389" x="291.33" y="160.42"/><rect fill="#EFF4FB" height="10" style="stroke:#2C5F9E;stroke-width:0.5;" width="15" x="372.6689" y="165.42"/><rect fill="#EFF4FB" height="2" style="stroke:#2C5F9E;stroke-width:0.5;" width="4" x="370.6689" y="167.42"/><rect fill="#EFF4FB" height="2" style="stroke:#2C5F9E;stroke-width:0.5;" width="4" x="370.6689" y="171.42"/><text fill="#000000" font-family="Arial" font-size="14" lengthAdjust="spacing" textLength="61.3389" x="306.33" y="193.4151">Consulta</text></g><!--entity Financeiro--><g class="entity" data-qualified-name="PsiSoft.Financeiro" data-source-line="37" id="ent0005"><rect fill="#EFF4FB" height="46.2969" rx="2.5" ry="2.5" style="stroke:#2C5F9E;stroke-width:0.5;" width="166.6426" x="152.68" y="290.95"/><rect fill="#EFF4FB" height="10" style="stroke:#2C5F9E;stroke-width:0.5;" width="15" x="299.3226" y="295.95"/><rect fill="#EFF4FB" height="2" style="stroke:#2C5F9E;stroke-width:0.5;" width="4" x="297.3226" y="297.95"/><rect fill="#EFF4FB" height="2" style="stroke:#2C5F9E;stroke-width:0.5;" width="4" x="297.3226" y="301.95"/><text fill="#000000" font-family="Arial" font-size="14" lengthAdjust="spacing" textLength="126.6426" x="167.68" y="323.9451">Gest&#227;o Financeira</text></g><!--entity Notificacao--><g class="entity" data-qualified-name="PsiSoft.Notificacao" data-source-line="38" id="ent0006"><rect fill="#EFF4FB" height="46.2969" rx="2.5" ry="2.5" style="stroke:#2C5F9E;stroke-width:0.5;" width="118.3535" x="406.82" y="290.95"/><rect fill="#EFF4FB" height="10" style="stroke:#2C5F9E;stroke-width:0.5;" width="15" x="505.1735" y="295.95"/><rect fill="#EFF4FB" height="2" style="stroke:#2C5F9E;stroke-width:0.5;" width="4" x="503.1735" y="297.95"/><rect fill="#EFF4FB" height="2" style="stroke:#2C5F9E;stroke-width:0.5;" width="4" x="503.1735" y="301.95"/><text fill="#000000" font-family="Arial" font-size="14" lengthAdjust="spacing" textLength="78.3535" x="421.82" y="323.9451">Notifica&#231;&#227;o</text></g><!--entity Prontuario--><g class="entity" data-qualified-name="PsiSoft.Prontuario" data-source-line="39" id="ent0007"><rect fill="#EFF4FB" height="46.2969" rx="2.5" ry="2.5" style="stroke:#2C5F9E;stroke-width:0.5;" width="112.7891" x="654.61" y="160.42"/><rect fill="#EFF4FB" height="10" style="stroke:#2C5F9E;stroke-width:0.5;" width="15" x="747.3991" y="165.42"/><rect fill="#EFF4FB" height="2" style="stroke:#2C5F9E;stroke-width:0.5;" width="4" x="745.3991" y="167.42"/><rect fill="#EFF4FB" height="2" style="stroke:#2C5F9E;stroke-width:0.5;" width="4" x="745.3991" y="171.42"/><text fill="#000000" font-family="Arial" font-size="14" lengthAdjust="spacing" textLength="72.7891" x="669.61" y="193.4151">Prontu&#225;rio</text></g><!--entity BD--><g class="entity" data-qualified-name="PsiSoft.BD" data-source-line="40" id="ent0008"><rect fill="#EFF4FB" height="46.2969" rx="2.5" ry="2.5" style="stroke:#2C5F9E;stroke-width:0.5;" width="153.8252" x="613.09" y="290.95"/><rect fill="#EFF4FB" height="10" style="stroke:#2C5F9E;stroke-width:0.5;" width="15" x="746.9152" y="295.95"/><rect fill="#EFF4FB" height="2" style="stroke:#2C5F9E;stroke-width:0.5;" width="4" x="744.9152" y="297.95"/><rect fill="#EFF4FB" height="2" style="stroke:#2C5F9E;stroke-width:0.5;" width="4" x="744.9152" y="301.95"/><text fill="#000000" font-family="Arial" font-size="14" lengthAdjust="spacing" textLength="113.8252" x="628.09" y="323.9451">Banco de Dados</text></g><!--entity IAgendamento--><g class="entity" data-qualified-name="PsiSoft.IAgendamento" data-source-line="43" id="ent0009"><ellipse cx="811" cy="183.57" fill="#FFFFFF" rx="8" ry="8" style="stroke:#2C5F9E;stroke-width:0.5;"/><text fill="#000000" font-family="sans-serif" font-size="14" lengthAdjust="spacing" textLength="102.7236" x="759.6382" y="213.5651">IAgendamento</text></g><!--entity IConsulta--><g class="entity" data-qualified-name="PsiSoft.IConsulta" data-source-line="44" id="ent0010"><ellipse cx="569" cy="314.1" fill="#FFFFFF" rx="8" ry="8" style="stroke:#2C5F9E;stroke-width:0.5;"/><text fill="#000000" font-family="sans-serif" font-size="14" lengthAdjust="spacing" textLength="65.4678" x="536.2661" y="344.0951">IConsulta</text></g><!--entity IFinanceiro--><g class="entity" data-qualified-name="PsiSoft.IFinanceiro" data-source-line="45" id="ent0011"><ellipse cx="363" cy="314.1" fill="#FFFFFF" rx="8" ry="8" style="stroke:#2C5F9E;stroke-width:0.5;"/><text fill="#000000" font-family="sans-serif" font-size="14" lengthAdjust="spacing" textLength="76.918" x="324.541" y="344.0951">IFinanceiro</text></g><!--entity INotificacao--><g class="entity" data-qualified-name="PsiSoft.INotificacao" data-source-line="46" id="ent0012"><ellipse cx="109" cy="314.1" fill="#FFFFFF" rx="8" ry="8" style="stroke:#2C5F9E;stroke-width:0.5;"/><text fill="#000000" font-family="sans-serif" font-size="14" lengthAdjust="spacing" textLength="82.4824" x="67.7588" y="344.0951">INotificacao</text></g><!--entity IProntuario--><g class="entity" data-qualified-name="PsiSoft.IProntuario" data-source-line="47" id="ent0013"><ellipse cx="437" cy="183.57" fill="#FFFFFF" rx="8" ry="8" style="stroke:#2C5F9E;stroke-width:0.5;"/><text fill="#000000" font-family="sans-serif" font-size="14" lengthAdjust="spacing" textLength="76.918" x="398.541" y="213.5651">IProntuario</text></g><!--entity IBD--><g class="entity" data-qualified-name="PsiSoft.IBD" data-source-line="48" id="ent0014"><ellipse cx="811" cy="314.1" fill="#FFFFFF" rx="8" ry="8" style="stroke:#2C5F9E;stroke-width:0.5;"/><text fill="#000000" font-family="sans-serif" font-size="14" lengthAdjust="spacing" textLength="110.9473" x="755.5264" y="344.0951">IBancoDeDados</text></g><!--entity Gateway--><g class="entity" data-qualified-name="Externos.Gateway" data-source-line="87" id="ent0029"><rect fill="#EFF4FB" height="46.2969" rx="2.5" ry="2.5" style="stroke:#2C5F9E;stroke-width:0.5;" width="207.9111" x="23.04" y="420.39"/><rect fill="#EFF4FB" height="10" style="stroke:#2C5F9E;stroke-width:0.5;" width="15" x="210.9511" y="425.39"/><rect fill="#EFF4FB" height="2" style="stroke:#2C5F9E;stroke-width:0.5;" width="4" x="208.9511" y="427.39"/><rect fill="#EFF4FB" height="2" style="stroke:#2C5F9E;stroke-width:0.5;" width="4" x="208.9511" y="431.39"/><text fill="#000000" font-family="Arial" font-size="14" lengthAdjust="spacing" textLength="167.9111" x="38.04" y="453.3851">Gateway de Pagamento</text></g><!--entity WhatsApp--><g class="entity" data-qualified-name="Externos.WhatsApp" data-source-line="88" id="ent0030"><rect fill="#EFF4FB" height="62.5938" rx="2.5" ry="2.5" style="stroke:#2C5F9E;stroke-width:0.5;" width="138.0273" x="318.99" y="412.25"/><rect fill="#EFF4FB" height="10" style="stroke:#2C5F9E;stroke-width:0.5;" width="15" x="437.0173" y="417.25"/><rect fill="#EFF4FB" height="2" style="stroke:#2C5F9E;stroke-width:0.5;" width="4" x="435.0173" y="419.25"/><rect fill="#EFF4FB" height="2" style="stroke:#2C5F9E;stroke-width:0.5;" width="4" x="435.0173" y="423.25"/><text fill="#000000" font-family="Arial" font-size="14" lengthAdjust="spacing" textLength="98.0273" x="333.99" y="445.2451">API WhatsApp</text><text fill="#000000" font-family="Arial" font-size="14" lengthAdjust="spacing" textLength="45.6846" x="360.1614" y="461.542">(Meta)</text></g><!--entity ePsi--><g class="entity" data-qualified-name="Externos.ePsi" data-source-line="89" id="ent0031"><rect fill="#EFF4FB" height="62.5938" rx="2.5" ry="2.5" style="stroke:#2C5F9E;stroke-width:0.5;" width="99.8896" x="545.06" y="412.25"/><rect fill="#EFF4FB" height="10" style="stroke:#2C5F9E;stroke-width:0.5;" width="15" x="624.9496" y="417.25"/><rect fill="#EFF4FB" height="2" style="stroke:#2C5F9E;stroke-width:0.5;" width="4" x="622.9496" y="419.25"/><rect fill="#EFF4FB" height="2" style="stroke:#2C5F9E;stroke-width:0.5;" width="4" x="622.9496" y="423.25"/><text fill="#000000" font-family="Arial" font-size="14" lengthAdjust="spacing" textLength="59.8896" x="560.06" y="445.2451">API e-Psi</text><text fill="#000000" font-family="Arial" font-size="14" lengthAdjust="spacing" textLength="37.1943" x="571.4077" y="461.542">(CFP)</text></g><!--entity MotorIA--><g class="entity" data-qualified-name="Externos.MotorIA" data-source-line="90" id="ent0032"><rect fill="#EFF4FB" height="62.5938" rx="2.5" ry="2.5" style="stroke:#2C5F9E;stroke-width:0.5;" width="132.1621" x="732.92" y="412.25"/><rect fill="#EFF4FB" height="10" style="stroke:#2C5F9E;stroke-width:0.5;" width="15" x="845.0821" y="417.25"/><rect fill="#EFF4FB" height="2" style="stroke:#2C5F9E;stroke-width:0.5;" width="4" x="843.0821" y="419.25"/><rect fill="#EFF4FB" height="2" style="stroke:#2C5F9E;stroke-width:0.5;" width="4" x="843.0821" y="423.25"/><text fill="#000000" font-family="Arial" font-size="14" lengthAdjust="spacing" textLength="80.5615" x="753.7203" y="445.2451">Motor de IA</text><text fill="#000000" font-family="Arial" font-size="14" lengthAdjust="spacing" textLength="92.1621" x="747.92" y="461.542">(Transcri&#231;&#227;o)</text></g><!--entity IGateway--><g class="entity" data-qualified-name="Externos.IGateway" data-source-line="93" id="ent0033"><ellipse cx="275" cy="443.54" fill="#FFFFFF" rx="8" ry="8" style="stroke:#2C5F9E;stroke-width:0.5;"/><text fill="#000000" font-family="sans-serif" font-size="14" lengthAdjust="spacing" textLength="145.6396" x="202.1802" y="473.5351">IGatewayPagamento</text></g><!--entity IWhatsApp--><g class="entity" data-qualified-name="Externos.IWhatsApp" data-source-line="94" id="ent0034"><ellipse cx="501" cy="443.54" fill="#FFFFFF" rx="8" ry="8" style="stroke:#2C5F9E;stroke-width:0.5;"/><text fill="#000000" font-family="sans-serif" font-size="14" lengthAdjust="spacing" textLength="75.5576" x="463.2212" y="473.5351">IWhatsApp</text></g><!--entity IePsi--><g class="entity" data-qualified-name="Externos.IePsi" data-source-line="95" id="ent0035"><ellipse cx="689" cy="443.54" fill="#FFFFFF" rx="8" ry="8" style="stroke:#2C5F9E;stroke-width:0.5;"/><text fill="#000000" font-family="sans-serif" font-size="14" lengthAdjust="spacing" textLength="32.3682" x="672.8159" y="473.5351">IePsi</text></g><!--entity IMotorIA--><g class="entity" data-qualified-name="Externos.IMotorIA" data-source-line="96" id="ent0036"><ellipse cx="909" cy="443.54" fill="#FFFFFF" rx="8" ry="8" style="stroke:#2C5F9E;stroke-width:0.5;"/><text fill="#000000" font-family="sans-serif" font-size="14" lengthAdjust="spacing" textLength="58.29" x="879.855" y="473.5351">IMotorIA</text></g><g class="entity" data-qualified-name="GMN45" data-source-line="129" id="ent0046"><path d="M855.25,148.3 L855.25,218.8312 L1060.7446,218.8312 L1060.7446,158.3 L1050.7446,148.3 L855.25,148.3" fill="#FFFDE7" style="stroke:#F9A825;stroke-width:0.5;"/><path d="M1050.7446,148.3 L1050.7446,158.3 L1060.7446,158.3 L1050.7446,148.3" fill="#FFFDE7" style="stroke:#F9A825;stroke-width:1;"/><text fill="#000000" font-family="sans-serif" font-size="13" lengthAdjust="spacing" textLength="126.5024" x="890.2461" y="165.3669">processarReserva()</text><text fill="#000000" font-family="sans-serif" font-size="13" lengthAdjust="spacing" textLength="184.4946" x="861.25" y="180.4997">registrarConsultaPendente()</text><text fill="#000000" font-family="sans-serif" font-size="13" lengthAdjust="spacing" textLength="139.7817" x="883.6064" y="195.6325">Contrato 01 - Larman</text><text fill="#000000" font-family="sans-serif" font-size="13" lengthAdjust="spacing" textLength="88.1309" x="909.4319" y="210.7653">RF-04 | RF-05</text></g><g class="entity" data-qualified-name="GMN48" data-source-line="136" id="ent0049"><path d="M996.65,278.83 L996.65,349.3613 L1223.3521,349.3613 L1223.3521,288.83 L1213.3521,278.83 L996.65,278.83" fill="#FFFDE7" style="stroke:#F9A825;stroke-width:0.5;"/><path d="M1213.3521,278.83 L1213.3521,288.83 L1223.3521,288.83 L1213.3521,278.83" fill="#FFFDE7" style="stroke:#F9A825;stroke-width:1;"/><text fill="#000000" font-family="sans-serif" font-size="13" lengthAdjust="spacing" textLength="151.4868" x="1029.7577" y="295.8969">gerarOrdemCobranca()</text><text fill="#000000" font-family="sans-serif" font-size="13" lengthAdjust="spacing" textLength="205.7021" x="1002.65" y="311.0297">efetivarConsulta() via Webhook</text><text fill="#000000" font-family="sans-serif" font-size="13" lengthAdjust="spacing" textLength="179.3594" x="1015.8214" y="326.1625">Contratos 02 e 03 - Larman</text><text fill="#000000" font-family="sans-serif" font-size="13" lengthAdjust="spacing" textLength="156.1143" x="1027.4439" y="341.2953">RNF-01 (HTTPS/TLS 1.3)</text></g><g class="entity" data-qualified-name="GMN51" data-source-line="143" id="ent0052"><path d="M1096.22,155.87 L1096.22,211.2684 L1369.7742,211.2684 L1369.7742,165.87 L1359.7742,155.87 L1096.22,155.87" fill="#FFFDE7" style="stroke:#F9A825;stroke-width:0.5;"/><path d="M1359.7742,155.87 L1359.7742,165.87 L1369.7742,165.87 L1359.7742,155.87" fill="#FFFDE7" style="stroke:#F9A825;stroke-width:1;"/><text fill="#000000" font-family="sans-serif" font-size="13" lengthAdjust="spacing" textLength="229.4424" x="1113.7759" y="172.9369">Guarda obrigat&#243;ria: 5 anos (RN-01)</text><text fill="#000000" font-family="sans-serif" font-size="13" lengthAdjust="spacing" textLength="252.5542" x="1102.22" y="188.0697">Conforme Res. CFP 001/2009 (RNF-07)</text><text fill="#000000" font-family="sans-serif" font-size="13" lengthAdjust="spacing" textLength="197.793" x="1129.6006" y="203.2025">Criptografia AES-256 (RNF-01)</text></g><g class="entity" data-qualified-name="GMN54" data-source-line="149" id="ent0055"><path d="M1258.76,286.4 L1258.76,341.7984 L1497.2497,341.7984 L1497.2497,296.4 L1487.2497,286.4 L1258.76,286.4" fill="#FFFDE7" style="stroke:#F9A825;stroke-width:0.5;"/><path d="M1487.2497,286.4 L1487.2497,296.4 L1497.2497,296.4 L1487.2497,286.4" fill="#FFFDE7" style="stroke:#F9A825;stroke-width:1;"/><text fill="#000000" font-family="sans-serif" font-size="13" lengthAdjust="spacing" textLength="185.6626" x="1280.6736" y="303.4669">Rede privada (VPC) - isolado</text><text fill="#000000" font-family="sans-serif" font-size="13" lengthAdjust="spacing" textLength="217.4897" x="1264.76" y="318.5997">Criptografia AES-256 em repouso</text><text fill="#000000" font-family="sans-serif" font-size="13" lengthAdjust="spacing" textLength="187.624" x="1279.6929" y="333.7325">Backup autom&#225;tico (RNF-03)</text></g><!--link Agendamento to IAgendamento--><g class="link" data-entity-1="ent0003" data-entity-2="ent0009" data-link-type="association" data-source-line="51" id="lnk15"><path d="M604.32,207.05 C604.32,209.34 604.32,210.84 604.32,210.84 C604.32,210.84 811,210.84 811,210.84 C811,210.84 811,200.71 811,192.8" fill="none" id="Agendamento-IAgendamento" style="stroke:#444444;stroke-width:1;"/></g><!--link Consulta to IConsulta--><g class="link" data-entity-1="ent0004" data-entity-2="ent0010" data-link-type="association" data-source-line="52" id="lnk16"><path d="M378.89,207.04 C378.89,212.54 378.89,216.84 378.89,216.84 C378.89,216.84 566,216.84 566,216.84 C566,216.84 566,280.43 566,304.77" fill="none" id="Consulta-IConsulta" style="stroke:#444444;stroke-width:1;"/></g><!--link Financeiro to IFinanceiro--><g class="link" data-entity-1="ent0005" data-entity-2="ent0011" data-link-type="association" data-source-line="53" id="lnk17"><path d="M319.65,314.84 C333.4,314.84 345.74,314.84 353.7,314.84" fill="none" id="Financeiro-IFinanceiro" style="stroke:#444444;stroke-width:1;"/></g><!--link Notificacao to INotificacao--><g class="link" data-entity-1="ent0006" data-entity-2="ent0012" data-link-type="association" data-source-line="54" id="lnk18"><path d="M417.41,290.65 C417.41,288.92 417.41,287.84 417.41,287.84 C417.41,287.84 112,287.84 112,287.84 C112,287.84 112,297.1 112,304.62" fill="none" id="Notificacao-INotificacao" style="stroke:#444444;stroke-width:1;"/></g><!--link Prontuario to IProntuario--><g class="link" data-entity-1="ent0007" data-entity-2="ent0013" data-link-type="association" data-source-line="55" id="lnk19"><path d="M699.53,207.18 C699.53,208.22 699.53,208.84 699.53,208.84 C699.53,208.84 437,208.84 437,208.84 C437,208.84 437,200.16 437,192.98" fill="none" id="Prontuario-IProntuario" style="stroke:#444444;stroke-width:1;"/></g><!--link BD to IBD--><g class="link" data-entity-1="ent0008" data-entity-2="ent0014" data-link-type="association" data-source-line="56" id="lnk20"><path d="M767.32,314.84 C781.03,314.84 793.48,314.84 801.56,314.84" fill="none" id="BD-IBD" style="stroke:#444444;stroke-width:1;"/></g><!--link UI to IAgendamento--><g class="link" data-entity-1="ent0002" data-entity-2="ent0009" data-link-type="dependency" data-source-line="60" id="lnk21"><path d="M659.32,65.84 C722.25,65.84 811,65.84 811,65.84 C811,65.84 811,141.58 811,169.33" fill="none" id="UI-to-IAgendamento" style="stroke:#444444;stroke-width:1;stroke-dasharray:7,7;"/><polygon fill="#444444" points="811,174.33,815,165.33,811,169.33,807,165.33,811,174.33" style="stroke:#444444;stroke-width:1;stroke-linejoin:miter;stroke-miterlimit:10;"/><text fill="#000000" font-family="sans-serif" font-size="13" lengthAdjust="spacing" textLength="38.9175" x="750.41" y="61.9069">&#171;use&#187;</text></g><!--link UI to IProntuario--><g class="link" data-entity-1="ent0002" data-entity-2="ent0013" data-link-type="dependency" data-source-line="63" id="lnk22"><path d="M536.67,65.84 C491.17,65.84 437,65.84 437,65.84 C437,65.84 437,141.58 437,169.33" fill="none" id="UI-to-IProntuario" style="stroke:#444444;stroke-width:1;stroke-dasharray:7,7;"/><polygon fill="#444444" points="437,174.33,441,165.33,437,169.33,433,165.33,437,174.33" style="stroke:#444444;stroke-width:1;stroke-linejoin:miter;stroke-miterlimit:10;"/><text fill="#000000" font-family="sans-serif" font-size="13" lengthAdjust="spacing" textLength="38.9175" x="398" y="66.3169">&#171;use&#187;</text></g><!--link Agendamento to IConsulta--><g class="link" data-entity-1="ent0003" data-entity-2="ent0010" data-link-type="dependency" data-source-line="67" id="lnk23"><path d="M572,207.2 C572,236.3 572,279.33 572,299.6" fill="none" id="Agendamento-to-IConsulta" style="stroke:#444444;stroke-width:1;stroke-dasharray:7,7;"/><polygon fill="#444444" points="572,304.6,576,295.6,572,299.6,568,295.6,572,304.6" style="stroke:#444444;stroke-width:1;stroke-linejoin:miter;stroke-miterlimit:10;"/><text fill="#000000" font-family="sans-serif" font-size="13" lengthAdjust="spacing" textLength="38.9175" x="533" y="251.9669">&#171;use&#187;</text></g><!--link Consulta to IFinanceiro--><g class="link" data-entity-1="ent0004" data-entity-2="ent0011" data-link-type="dependency" data-source-line="71" id="lnk24"><path d="M363,207.2 C363,236.3 363,279.33 363,299.6" fill="none" id="Consulta-to-IFinanceiro" style="stroke:#444444;stroke-width:1;stroke-dasharray:7,7;"/><polygon fill="#444444" points="363,304.6,367,295.6,363,299.6,359,295.6,363,304.6" style="stroke:#444444;stroke-width:1;stroke-linejoin:miter;stroke-miterlimit:10;"/><text fill="#000000" font-family="sans-serif" font-size="13" lengthAdjust="spacing" textLength="38.9175" x="324" y="251.9669">&#171;use&#187;</text></g><!--link Consulta to INotificacao--><g class="link" data-entity-1="ent0004" data-entity-2="ent0012" data-link-type="dependency" data-source-line="75" id="lnk25"><path d="M291.08,183.84 C221.7,183.84 106,183.84 106,183.84 C106,183.84 106,269.86 106,299.73" fill="none" id="Consulta-to-INotificacao" style="stroke:#444444;stroke-width:1;stroke-dasharray:7,7;"/><polygon fill="#444444" points="106,304.73,110,295.73,106,299.73,102,295.73,106,304.73" style="stroke:#444444;stroke-width:1;stroke-linejoin:miter;stroke-miterlimit:10;"/><text fill="#000000" font-family="sans-serif" font-size="13" lengthAdjust="spacing" textLength="38.9175" x="99.1" y="179.9069">&#171;use&#187;</text></g><!--link Consulta to IBD--><g class="link" data-entity-1="ent0004" data-entity-2="ent0014" data-link-type="dependency" data-source-line="78" id="lnk26"><path d="M385.78,206.95 C385.78,211.47 385.78,214.84 385.78,214.84 C385.78,214.84 806.5,214.84 806.5,214.84 C806.5,214.84 806.5,275.37 806.5,299.94" fill="none" id="Consulta-to-IBD" style="stroke:#444444;stroke-width:1;stroke-dasharray:7,7;"/><polygon fill="#444444" points="806.5,304.94,810.5,295.94,806.5,299.94,802.5,295.94,806.5,304.94" style="stroke:#444444;stroke-width:1;stroke-linejoin:miter;stroke-miterlimit:10;"/><text fill="#000000" font-family="sans-serif" font-size="13" lengthAdjust="spacing" textLength="38.9175" x="598.24" y="227.9069">&#171;use&#187;</text></g><!--link Prontuario to IBD--><g class="link" data-entity-1="ent0007" data-entity-2="ent0014" data-link-type="dependency" data-source-line="79" id="lnk27"><path d="M767.84,199.84 C792.35,199.84 815.5,199.84 815.5,199.84 C815.5,199.84 815.5,272.46 815.5,299.75" fill="none" id="Prontuario-to-IBD" style="stroke:#444444;stroke-width:1;stroke-dasharray:7,7;"/><polygon fill="#444444" points="815.5,304.75,819.5,295.75,815.5,299.75,811.5,295.75,815.5,304.75" style="stroke:#444444;stroke-width:1;stroke-linejoin:miter;stroke-miterlimit:10;"/><text fill="#000000" font-family="sans-serif" font-size="13" lengthAdjust="spacing" textLength="38.9175" x="776.5" y="224.5269">&#171;use&#187;</text></g><!--link Gateway to IGateway--><g class="link" data-entity-1="ent0029" data-entity-2="ent0033" data-link-type="association" data-source-line="98" id="lnk37"><path d="M231.4,443.84 C245.36,443.84 257.58,443.84 265.5,443.84" fill="none" id="Gateway-IGateway" style="stroke:#444444;stroke-width:1;"/></g><!--link WhatsApp to IWhatsApp--><g class="link" data-entity-1="ent0030" data-entity-2="ent0034" data-link-type="association" data-source-line="99" id="lnk38"><path d="M457.31,443.84 C471.02,443.84 483.66,443.84 491.78,443.84" fill="none" id="WhatsApp-IWhatsApp" style="stroke:#444444;stroke-width:1;"/></g><!--link ePsi to IePsi--><g class="link" data-entity-1="ent0031" data-entity-2="ent0035" data-link-type="association" data-source-line="100" id="lnk39"><path d="M645.3,443.84 C658.57,443.84 671.49,443.84 679.79,443.84" fill="none" id="ePsi-IePsi" style="stroke:#444444;stroke-width:1;"/></g><!--link MotorIA to IMotorIA--><g class="link" data-entity-1="ent0032" data-entity-2="ent0036" data-link-type="association" data-source-line="101" id="lnk40"><path d="M865.53,443.84 C879.1,443.84 891.69,443.84 899.79,443.84" fill="none" id="MotorIA-IMotorIA" style="stroke:#444444;stroke-width:1;"/></g><!--link Financeiro to IGateway--><g class="link" data-entity-1="ent0005" data-entity-2="ent0033" data-link-type="dependency" data-source-line="111" id="lnk41"><path d="M275,337.54 C275,366.39 275,409.02 275,429.13" fill="none" id="Financeiro-to-IGateway" style="stroke:#444444;stroke-width:1;stroke-dasharray:7,7;"/><polygon fill="#444444" points="275,434.13,279,425.13,275,429.13,271,425.13,275,434.13" style="stroke:#444444;stroke-width:1;stroke-linejoin:miter;stroke-miterlimit:10;"/><text fill="#000000" font-family="sans-serif" font-size="13" lengthAdjust="spacing" textLength="38.9175" x="236" y="381.8969">&#171;use&#187;</text></g><!--link Notificacao to IWhatsApp--><g class="link" data-entity-1="ent0006" data-entity-2="ent0034" data-link-type="dependency" data-source-line="115" id="lnk42"><path d="M501,337.54 C501,366.39 501,409.02 501,429.13" fill="none" id="Notificacao-to-IWhatsApp" style="stroke:#444444;stroke-width:1;stroke-dasharray:7,7;"/><polygon fill="#444444" points="501,434.13,505,425.13,501,429.13,497,425.13,501,434.13" style="stroke:#444444;stroke-width:1;stroke-linejoin:miter;stroke-miterlimit:10;"/><text fill="#000000" font-family="sans-serif" font-size="13" lengthAdjust="spacing" textLength="38.9175" x="462" y="381.8969">&#171;use&#187;</text></g><!--link Agendamento to IePsi--><g class="link" data-entity-1="ent0003" data-entity-2="ent0035" data-link-type="dependency" data-source-line="119" id="lnk43"><path d="M595.54,206.87 C595.54,251.32 595.54,343.84 595.54,343.84 C595.54,343.84 689,343.84 689,343.84 C689,343.84 689,404.66 689,429.34" fill="none" id="Agendamento-to-IePsi" style="stroke:#444444;stroke-width:1;stroke-dasharray:7,7;"/><polygon fill="#444444" points="689,434.34,693,425.34,689,429.34,685,425.34,689,434.34" style="stroke:#444444;stroke-width:1;stroke-linejoin:miter;stroke-miterlimit:10;"/><text fill="#000000" font-family="sans-serif" font-size="13" lengthAdjust="spacing" textLength="38.9175" x="580.04" y="356.9069">&#171;use&#187;</text></g><!--link Prontuario to IMotorIA--><g class="link" data-entity-1="ent0007" data-entity-2="ent0036" data-link-type="dependency" data-source-line="123" id="lnk44"><path d="M721.99,206.78 C721.99,230.49 721.99,263.84 721.99,263.84 C721.99,263.84 909,263.84 909,263.84 C909,263.84 909,392.76 909,429.38" fill="none" id="Prontuario-to-IMotorIA" style="stroke:#444444;stroke-width:1;stroke-dasharray:7,7;"/><polygon fill="#444444" points="909,434.38,913,425.38,909,429.38,905,425.38,909,434.38" style="stroke:#444444;stroke-width:1;stroke-linejoin:miter;stroke-miterlimit:10;"/><text fill="#000000" font-family="sans-serif" font-size="13" lengthAdjust="spacing" textLength="38.9175" x="833.24" y="259.9069">&#171;use&#187;</text></g><!--link Agendamento to GMN45--><g class="link" data-entity-1="ent0003" data-entity-2="ent0046" data-link-type="association" data-source-line="129" id="lnk47"><path d="M586.77,207.2 C586.77,210.52 586.77,212.84 586.77,212.84 C586.77,212.84 745.22,212.84 855.09,212.84" fill="none" id="Agendamento-GMN45" style="stroke:#444444;stroke-width:1;stroke-dasharray:7,7;"/></g><!--link Financeiro to GMN48--><g class="link" data-entity-1="ent0005" data-entity-2="ent0049" data-link-type="association" data-source-line="136" id="lnk50"><path d="M305.33,290.56 C305.33,286.65 305.33,283.84 305.33,283.84 C305.33,283.84 774.61,283.84 996.42,283.84" fill="none" id="Financeiro-GMN48" style="stroke:#444444;stroke-width:1;stroke-dasharray:7,7;"/></g><!--link Prontuario to GMN51--><g class="link" data-entity-1="ent0007" data-entity-2="ent0052" data-link-type="association" data-source-line="143" id="lnk53"><path d="M744.45,206.94 C744.45,220.07 744.45,233.84 744.45,233.84 C744.45,233.84 1159.79,233.84 1159.79,233.84 C1159.79,233.84 1159.79,223.16 1159.79,211.64" fill="none" id="Prontuario-GMN51" style="stroke:#444444;stroke-width:1;stroke-dasharray:7,7;"/></g><!--link BD to GMN54--><g class="link" data-entity-1="ent0008" data-entity-2="ent0055" data-link-type="association" data-source-line="149" id="lnk56"><path d="M677.07,290.54 C677.07,271.85 677.07,248.84 677.07,248.84 C677.07,248.84 1314.27,248.84 1314.27,248.84 C1314.27,248.84 1314.27,268.36 1314.27,286.04" fill="none" id="BD-GMN54" style="stroke:#444444;stroke-width:1;stroke-dasharray:7,7;"/></g><?plantuml-src hLZBRjj65DthAoxKXIGqSYGxpiD80z0KvH2m9LMFf43RnPWQoGDJ76PcvCH8isr_e3yGT16WG5P1DztgJ_eblJDy3Iah2Q1mOvDpUE-vP-vZg0RyiCTLQq2FaQKWAm9p2YvVnJoYaQ8IsZ2IRC8N2fg3pSSR6e9xr4Byc2wesFmT1OoSW2i8My8v4IiItGCdZiDR5YrXTd4E99h3Y2X5HIJlWKlY0pWwClvamEAGHVYw8rwjcQ9gBGXGw559eokkYMY_hucWq7Hzjzjvs6bfFZEtVJP44tj5N9FNB8e9XeoE5cGTgYbzevoGBQCLHWw13bzOg20J1TxM0AzJ4bml1Lz7SvU7NC1tNh__e7-Qh74nfo9zVkWUzvzuvdcVHsf0LXGZPYIilRFCC-rkGGAwotpVN3lDsxO43HI9bk5kMvt-uxjiFJQNUJvEu2AY0hg79VCHLvzZsVCURLlkFt4U7nwNp3X2yDVfyWDpMOkO65JTnXIuK5UyjkzkDs0oEvtuawbtuO0_c7hZmV04HY5HPC4nQxCatzTFeNnzstWTYCohwMtDY5HarSzzWTb1iLnc_gyQEVEh26U9oqId9pS8wxuATNaaCQU9mMKtLT0PbMhp5uS-Lc4KK2OIU7wxPNN05LkmW6m-u6i6cpq9o1PufEDPRzuBba2JUuAtLUGfkZFrtYDpBWtuj9Vequ1skmr-LXmI5Zeb0pP7J3FaOSXY7hSqoC2BAghxbZfrlQRD-bN9x1SocH9q-a99EnjTg5Glq1NfRBobL46dAf_zGg6NvQ0YeeqtAlQeqR2UuSiwdhEbthj_g3mfzAUffjIobkbfoGNOUhVro-Gn13MWf5SXHxfQqSSAFrclwb64cngen7_QW-BIwryLxreIAzQcvC4rLKKIDI0lHK5VhR41sZBe_WInu9YCaWX4I2fkY3Hlplo2pS71ix9U02VmzEbQqcVFQZlyM2MJ-A5ls2KJzmLTCga4kgCtF5md8UtmM99iowFD9tMQRw7ncBlA7e_m1QrQivMQQE8A0fIfs65CHT8EeDF57KZE0CcSxtPRMqcKS2nbpHR7V3KbQ6MHeRX4bsA8msNbyak1I-JBt0vtSBEP9DnAEVj5RgMEcD0Z9bnnJbUNWYhwCew_JE_eg-cLIcOtFLhE9IeaxYhLinlAtNQ7cr9X5MwgDVbPyBjlCRQzyGj_yyTm0jvFPcfFlk68dc3biiq7Bi5xem-ekc-IukQE6Nr657rDRhLw8xAqHd6wi3MnHpwyl29AufdubwXvGHLf6NpsyAuNQ1iF2OXs-wC4JF6-2hpW2WzEoCDt43h5Cf21O2QTafSCm7UopBXxXCOqn3Xf6l3MI4cZoaCrylXsh3OwYocVdmPTYjI6wwZgO5yQdiTgGzDOwcLeAS9iPx2GIWGpz_fvYOfsb8wDmcbgqZpCp7-BD7Q70y-T3iVU17eUN0m7K-VCkpX9WiIQ_E_tFxDTG7IJI8dT8xp53Ozmgv27_X3BZZlmFQGZQ--Fe0Pidm4DcRiI7T4lwUKLvzSelznyZ0Bi16dJGw8BXlqhwMVuLfoz1StneDysm-7vT3gQt9-UJrerkyicJIJVGBkhDIeDLbEpQme1JamZp8QvRcP0vYiMcVcbs0tNek6anX4wvvgXefj_zNyXScU1OTRk7BPgTazDoEHPKoPZJxACYgbMN7j1GYofD7wUpL7pFt9OC2aPZqYOpWWzzPan9857-ci7sQ1CnwtQzhZCKxNCnkxmcetL4d2rr1A0h1LVRTuhZ1BYpIVPbdXyqGlKZDDYsooRoSOzRDMsEtvU9sL6UrR9O3Xr9k2CVvpvKsyw6pl-19g2e8oKN38jBpB47cY6BvCCnTkx1Cp7h63BAmLyKVcYoazvu-IGP-Ruvmz8-O2tJaFuM6_j0_ZD_3skwHEVzbkhU2-TZdUSSkY2OceNtfijk64aAqoBWTI77ceVBJIFf1IRUIL2z-2ejPDGwRHzXl_C2I0PF5MhpIUXV_av1g8dfQcaRYg0_kYbW9eT08umw7IwzmyxdITfFZqoAC5YnPU2B92xuqtQXySFiqQncmuUxZ44Qj8KDK0opHSZL_ycn2GFiG7iianroiHyBJL2_sQnZgsAo3BT4k9_?></g></svg>