<svg xmlns="http://www.w3.org/2000/svg" xmlns:xlink="http://www.w3.org/1999/xlink" contentStyleType="text/css" data-diagram-type="DESCRIPTION" height="325px" preserveAspectRatio="none" style="width:426px;height:325px;background:#FFFFFF;" version="1.1" viewBox="0 0 426 325" width="426px" zoomAndPan="magnify"><?plantuml 1.2026.5?><defs/><g><!--cluster Agendamento--><g class="cluster" data-qualified-name="Agendamento" data-source-line="26" id="ent0001"><path d="M98.43,6 L209.5775,6 A3.75,3.75 0 0 1 212.0775,8.5 L219.0775,28.2969 L374.43,28.2969 A2.5,2.5 0 0 1 376.93,30.7969 L376.93,204.76 A2.5,2.5 0 0 1 374.43,207.26 L98.43,207.26 A2.5,2.5 0 0 1 95.93,204.76 L95.93,8.5 A2.5,2.5 0 0 1 98.43,6" fill="#F0F4FF" style="stroke:#4A6FA5;stroke-width:1.5;"/><line style="stroke:#4A6FA5;stroke-width:1.5;" x1="95.93" x2="219.0775" y1="28.2969" y2="28.2969"/><text fill="#000000" font-family="sans-serif" font-size="14" font-weight="700" lengthAdjust="spacing" textLength="110.1475" x="99.93" y="20.9951">Agendamento</text></g><!--entity AG_C--><g class="entity" data-qualified-name="Agendamento.AG_C" data-source-line="27" id="ent0002"><rect fill="#EFF4FB" height="45.1328" rx="2.5" ry="2.5" style="stroke:#2C5F9E;stroke-width:0.5;" width="195.7842" x="112.04" y="41"/><rect fill="#EFF4FB" height="10" style="stroke:#2C5F9E;stroke-width:0.5;" width="15" x="287.8242" y="46"/><rect fill="#EFF4FB" height="2" style="stroke:#2C5F9E;stroke-width:0.5;" width="4" x="285.8242" y="48"/><rect fill="#EFF4FB" height="2" style="stroke:#2C5F9E;stroke-width:0.5;" width="4" x="285.8242" y="52"/><text fill="#000000" font-family="Arial" font-size="13" lengthAdjust="spacing" textLength="155.7842" x="127.04" y="73.0669">AgendamentoController</text></g><!--entity AG_S--><g class="entity" data-qualified-name="Agendamento.AG_S" data-source-line="28" id="ent0003"><rect fill="#EFF4FB" height="45.1328" rx="2.5" ry="2.5" style="stroke:#2C5F9E;stroke-width:0.5;" width="179.5977" x="120.13" y="146.13"/><rect fill="#EFF4FB" height="10" style="stroke:#2C5F9E;stroke-width:0.5;" width="15" x="279.7277" y="151.13"/><rect fill="#EFF4FB" height="2" style="stroke:#2C5F9E;stroke-width:0.5;" width="4" x="277.7277" y="153.13"/><rect fill="#EFF4FB" height="2" style="stroke:#2C5F9E;stroke-width:0.5;" width="4" x="277.7277" y="157.13"/><text fill="#000000" font-family="Arial" font-size="13" lengthAdjust="spacing" textLength="139.5977" x="135.13" y="178.1969">AgendamentoService</text></g><!--entity IAg--><g class="entity" data-qualified-name="Agendamento.IAg" data-source-line="29" id="ent0004"><ellipse cx="351.93" cy="63.57" fill="#FFFFFF" rx="8" ry="8" style="stroke:#2C5F9E;stroke-width:0.5;"/><text fill="#000000" font-family="sans-serif" font-size="14" lengthAdjust="spacing" textLength="102.7236" x="300.5682" y="93.5651">IAgendamento</text></g><!--entity EXT_US--><g class="entity" data-qualified-name="EXT_US" data-source-line="35" id="ent0007"><rect fill="#EFF4FB" height="60.2656" rx="2.5" ry="2.5" style="stroke:#2C5F9E;stroke-width:0.5;" width="111.856" x="7" y="251.26"/><rect fill="#EFF4FB" height="10" style="stroke:#2C5F9E;stroke-width:0.5;" width="15" x="98.856" y="256.26"/><rect fill="#EFF4FB" height="2" style="stroke:#2C5F9E;stroke-width:0.5;" width="4" x="96.856" y="258.26"/><rect fill="#EFF4FB" height="2" style="stroke:#2C5F9E;stroke-width:0.5;" width="4" x="96.856" y="262.26"/><text fill="#000000" font-family="Arial" font-size="13" font-style="italic" lengthAdjust="spacing" textLength="69.856" x="23" y="283.3269">&#171;external&#187;</text><text fill="#000000" font-family="Arial" font-size="13" lengthAdjust="spacing" textLength="56.1768" x="29.8396" y="298.4597">Usu&#225;rios</text></g><!--entity EXT_CO--><g class="entity" data-qualified-name="EXT_CO" data-source-line="36" id="ent0008"><rect fill="#EFF4FB" height="60.2656" rx="2.5" ry="2.5" style="stroke:#2C5F9E;stroke-width:0.5;" width="111.856" x="154" y="251.26"/><rect fill="#EFF4FB" height="10" style="stroke:#2C5F9E;stroke-width:0.5;" width="15" x="245.856" y="256.26"/><rect fill="#EFF4FB" height="2" style="stroke:#2C5F9E;stroke-width:0.5;" width="4" x="243.856" y="258.26"/><rect fill="#EFF4FB" height="2" style="stroke:#2C5F9E;stroke-width:0.5;" width="4" x="243.856" y="262.26"/><text fill="#000000" font-family="Arial" font-size="13" font-style="italic" lengthAdjust="spacing" textLength="69.856" x="170" y="283.3269">&#171;external&#187;</text><text fill="#000000" font-family="Arial" font-size="13" lengthAdjust="spacing" textLength="56.9575" x="176.4492" y="298.4597">Consulta</text></g><!--entity EXT_PSI--><g class="entity" data-qualified-name="EXT_PSI" data-source-line="37" id="ent0009"><rect fill="#EFF4FB" height="60.2656" rx="2.5" ry="2.5" style="stroke:#2C5F9E;stroke-width:0.5;" width="111.856" x="301" y="251.26"/><rect fill="#EFF4FB" height="10" style="stroke:#2C5F9E;stroke-width:0.5;" width="15" x="392.856" y="256.26"/><rect fill="#EFF4FB" height="2" style="stroke:#2C5F9E;stroke-width:0.5;" width="4" x="390.856" y="258.26"/><rect fill="#EFF4FB" height="2" style="stroke:#2C5F9E;stroke-width:0.5;" width="4" x="390.856" y="262.26"/><text fill="#000000" font-family="Arial" font-size="13" font-style="italic" lengthAdjust="spacing" textLength="69.856" x="317" y="283.3269">&#171;external&#187;</text><text fill="#000000" font-family="Arial" font-size="13" lengthAdjust="spacing" textLength="55.6118" x="324.1221" y="298.4597">API e-Psi</text></g><!--link AG_C to AG_S--><g class="link" data-entity-1="ent0002" data-entity-2="ent0003" data-link-type="dependency" data-source-line="31" id="lnk5"><path d="M209.93,86.38 C209.93,104.01 209.93,123.31 209.93,140.93" fill="none" id="AG_C-to-AG_S" style="stroke:#444444;stroke-width:1;"/><polygon fill="#444444" points="209.93,145.93,213.93,136.93,209.93,140.93,205.93,136.93,209.93,145.93" style="stroke:#444444;stroke-width:1;stroke-linejoin:miter;stroke-miterlimit:10;"/><text fill="#000000" font-family="sans-serif" font-size="13" lengthAdjust="spacing" textLength="22.9785" x="186.93" y="112.2169">usa</text></g><!--link AG_C to IAg--><g class="link" data-entity-1="ent0002" data-entity-2="ent0004" data-link-type="association" data-source-line="32" id="lnk6"><path d="M308.16,64.53 C322.28,64.53 334.7,64.53 342.67,64.53" fill="none" id="AG_C-IAg" style="stroke:#444444;stroke-width:1;"/></g><!--link AG_S to EXT_US--><g class="link" data-entity-1="ent0003" data-entity-2="ent0007" data-link-type="dependency" data-source-line="39" id="lnk10"><path d="M137.06,191.53 C137.06,224.5 137.06,281.53 137.06,281.53 C137.06,281.53 134.46,281.53 124.12,281.53" fill="none" id="AG_S-to-EXT_US" style="stroke:#444444;stroke-width:1;stroke-dasharray:7,7;"/><polygon fill="#444444" points="119.12,281.53,128.12,285.53,124.12,281.53,128.12,277.53,119.12,281.53" style="stroke:#444444;stroke-width:1;stroke-linejoin:miter;stroke-miterlimit:10;"/><text fill="#000000" font-family="sans-serif" font-size="13" lengthAdjust="spacing" textLength="38.9175" x="98.06" y="241.5669">&#171;use&#187;</text></g><!--link AG_S to EXT_CO--><g class="link" data-entity-1="ent0003" data-entity-2="ent0008" data-link-type="dependency" data-source-line="40" id="lnk11"><path d="M209.93,191.5 C209.93,208.61 209.93,227.21 209.93,245.93" fill="none" id="AG_S-to-EXT_CO" style="stroke:#444444;stroke-width:1;stroke-dasharray:7,7;"/><polygon fill="#444444" points="209.93,250.93,213.93,241.93,209.93,245.93,205.93,241.93,209.93,250.93" style="stroke:#444444;stroke-width:1;stroke-linejoin:miter;stroke-miterlimit:10;"/><text fill="#000000" font-family="sans-serif" font-size="13" lengthAdjust="spacing" textLength="38.9175" x="170.93" y="217.2869">&#171;use&#187;</text></g><!--link AG_S to EXT_PSI--><g class="link" data-entity-1="ent0003" data-entity-2="ent0009" data-link-type="dependency" data-source-line="41" id="lnk12"><path d="M300.04,169.53 C314.79,169.53 325.37,169.53 325.37,169.53 C325.37,169.53 325.37,212.71 325.37,245.83" fill="none" id="AG_S-to-EXT_PSI" style="stroke:#444444;stroke-width:1;stroke-dasharray:7,7;"/><polygon fill="#444444" points="325.37,250.83,329.37,241.83,325.37,245.83,321.37,241.83,325.37,250.83" style="stroke:#444444;stroke-width:1;stroke-linejoin:miter;stroke-miterlimit:10;"/><text fill="#000000" font-family="sans-serif" font-size="13" lengthAdjust="spacing" textLength="38.9175" x="286.37" y="210.5769">&#171;use&#187;</text></g><?plantuml-src fPF1RjD048Rl-nIZz50uk4eXGMfK8hacHf4GMBX5bL1KZUojMNMzQurjIa5z6CI15wZ4dRmOuqtZRX3cqZdE_-t_pwvcz-7b8qhimwkeh22013FRo1c4XJGvbj8qbiNtSJ2U-3t0jbdV6LjQ-FtBoLFuW5hbkFwv_c511acj-61aJKF8_1ka4WsC3sT0ib0rTud5kjKD9cpBflB9Kpxng6k8-agP2WbBoEKbilcf_DA4MXMc6nkoBeOyAhDbPKqdVHF0TOBPLK6sDNbajINOMyJn93xPQ9PoIVVzPz4qFbguVintVClF0Y4fr7qhLLyb73uNjrwSwk8lCPD3SR6hmJZVg-ApM0mxZNdmVpXDmXTnEFrhoicESqXahxUuAq_KoiZcff9WgVbaXTYECVAsOtG_rCFhVlHKjnDMQqahm1h2rnVHV-XKqcULoLL7REZKqGzFELhkHFV5D2l2qLq81BczDi7SUS0CsXezpR6tGdXJdDNj-ZifMwysRelpqukp5E3uc9TAaa4zd_lyTfyzF7etZ8V9SlDFLZsUfCjTNBXP3mxcVVYCWRQMhEr8NT20r9dsqXy0?></g></svg>