<svg xmlns="http://www.w3.org/2000/svg" xmlns:xlink="http://www.w3.org/1999/xlink" contentStyleType="text/css" data-diagram-type="DESCRIPTION" height="325px" preserveAspectRatio="none" style="width:639px;height:325px;background:#FFFFFF;" version="1.1" viewBox="0 0 639 325" width="639px" zoomAndPan="magnify"><?plantuml 1.2026.5?><defs/><g><!--cluster Consulta--><g class="cluster" data-qualified-name="Consulta" data-source-line="26" id="ent0001"><path d="M243.28,6 L313.3777,6 A3.75,3.75 0 0 1 315.8777,8.5 L322.8777,28.2969 L485.28,28.2969 A2.5,2.5 0 0 1 487.78,30.7969 L487.78,204.76 A2.5,2.5 0 0 1 485.28,207.26 L243.28,207.26 A2.5,2.5 0 0 1 240.78,204.76 L240.78,8.5 A2.5,2.5 0 0 1 243.28,6" fill="#F0F4FF" style="stroke:#4A6FA5;stroke-width:1.5;"/><line style="stroke:#4A6FA5;stroke-width:1.5;" x1="240.78" x2="322.8777" y1="28.2969" y2="28.2969"/><text fill="#000000" font-family="sans-serif" font-size="14" font-weight="700" lengthAdjust="spacing" textLength="69.0977" x="244.78" y="20.9951">Consulta</text></g><!--entity CO_C--><g class="entity" data-qualified-name="Consulta.CO_C" data-source-line="27" id="ent0002"><rect fill="#EFF4FB" height="45.1328" rx="2.5" ry="2.5" style="stroke:#2C5F9E;stroke-width:0.5;" width="161.1895" x="257.18" y="41"/><rect fill="#EFF4FB" height="10" style="stroke:#2C5F9E;stroke-width:0.5;" width="15" x="398.3695" y="46"/><rect fill="#EFF4FB" height="2" style="stroke:#2C5F9E;stroke-width:0.5;" width="4" x="396.3695" y="48"/><rect fill="#EFF4FB" height="2" style="stroke:#2C5F9E;stroke-width:0.5;" width="4" x="396.3695" y="52"/><text fill="#000000" font-family="Arial" font-size="13" lengthAdjust="spacing" textLength="121.1895" x="272.18" y="73.0669">ConsultaController</text></g><!--entity CO_S--><g class="entity" data-qualified-name="Consulta.CO_S" data-source-line="28" id="ent0003"><rect fill="#EFF4FB" height="45.1328" rx="2.5" ry="2.5" style="stroke:#2C5F9E;stroke-width:0.5;" width="145.0029" x="265.27" y="146.13"/><rect fill="#EFF4FB" height="10" style="stroke:#2C5F9E;stroke-width:0.5;" width="15" x="390.2729" y="151.13"/><rect fill="#EFF4FB" height="2" style="stroke:#2C5F9E;stroke-width:0.5;" width="4" x="388.2729" y="153.13"/><rect fill="#EFF4FB" height="2" style="stroke:#2C5F9E;stroke-width:0.5;" width="4" x="388.2729" y="157.13"/><text fill="#000000" font-family="Arial" font-size="13" lengthAdjust="spacing" textLength="105.0029" x="280.27" y="178.1969">ConsultaService</text></g><!--entity ICo--><g class="entity" data-qualified-name="Consulta.ICo" data-source-line="29" id="ent0004"><ellipse cx="462.78" cy="63.57" fill="#FFFFFF" rx="8" ry="8" style="stroke:#2C5F9E;stroke-width:0.5;"/><text fill="#000000" font-family="sans-serif" font-size="14" lengthAdjust="spacing" textLength="65.4678" x="430.0461" y="93.5651">IConsulta</text></g><!--entity EXT_AG--><g class="entity" data-qualified-name="EXT_AG" data-source-line="35" id="ent0007"><rect fill="#EFF4FB" height="60.2656" rx="2.5" ry="2.5" style="stroke:#2C5F9E;stroke-width:0.5;" width="131.5522" x="7" y="251.26"/><rect fill="#EFF4FB" height="10" style="stroke:#2C5F9E;stroke-width:0.5;" width="15" x="118.5522" y="256.26"/><rect fill="#EFF4FB" height="2" style="stroke:#2C5F9E;stroke-width:0.5;" width="4" x="116.5522" y="258.26"/><rect fill="#EFF4FB" height="2" style="stroke:#2C5F9E;stroke-width:0.5;" width="4" x="116.5522" y="262.26"/><text fill="#000000" font-family="Arial" font-size="13" font-style="italic" lengthAdjust="spacing" textLength="69.856" x="32.8481" y="283.3269">&#171;external&#187;</text><text fill="#000000" font-family="Arial" font-size="13" lengthAdjust="spacing" textLength="91.5522" x="22" y="298.4597">Agendamento</text></g><!--entity EXT_FI--><g class="entity" data-qualified-name="EXT_FI" data-source-line="36" id="ent0008"><rect fill="#EFF4FB" height="60.2656" rx="2.5" ry="2.5" style="stroke:#2C5F9E;stroke-width:0.5;" width="157.5967" x="173.98" y="251.26"/><rect fill="#EFF4FB" height="10" style="stroke:#2C5F9E;stroke-width:0.5;" width="15" x="311.5767" y="256.26"/><rect fill="#EFF4FB" height="2" style="stroke:#2C5F9E;stroke-width:0.5;" width="4" x="309.5767" y="258.26"/><rect fill="#EFF4FB" height="2" style="stroke:#2C5F9E;stroke-width:0.5;" width="4" x="309.5767" y="262.26"/><text fill="#000000" font-family="Arial" font-size="13" font-style="italic" lengthAdjust="spacing" textLength="69.856" x="212.8504" y="283.3269">&#171;external&#187;</text><text fill="#000000" font-family="Arial" font-size="13" lengthAdjust="spacing" textLength="117.5967" x="188.98" y="298.4597">Gest&#227;o Financeira</text></g><!--entity EXT_NO--><g class="entity" data-qualified-name="EXT_NO" data-source-line="37" id="ent0009"><rect fill="#EFF4FB" height="60.2656" rx="2.5" ry="2.5" style="stroke:#2C5F9E;stroke-width:0.5;" width="112.7568" x="366.4" y="251.26"/><rect fill="#EFF4FB" height="10" style="stroke:#2C5F9E;stroke-width:0.5;" width="15" x="459.1568" y="256.26"/><rect fill="#EFF4FB" height="2" style="stroke:#2C5F9E;stroke-width:0.5;" width="4" x="457.1568" y="258.26"/><rect fill="#EFF4FB" height="2" style="stroke:#2C5F9E;stroke-width:0.5;" width="4" x="457.1568" y="262.26"/><text fill="#000000" font-family="Arial" font-size="13" font-style="italic" lengthAdjust="spacing" textLength="69.856" x="382.8504" y="283.3269">&#171;external&#187;</text><text fill="#000000" font-family="Arial" font-size="13" lengthAdjust="spacing" textLength="72.7568" x="381.4" y="298.4597">Notifica&#231;&#227;o</text></g><!--entity EXT_SE--><g class="entity" data-qualified-name="EXT_SE" data-source-line="38" id="ent0010"><rect fill="#EFF4FB" height="60.2656" rx="2.5" ry="2.5" style="stroke:#2C5F9E;stroke-width:0.5;" width="111.856" x="513.85" y="251.26"/><rect fill="#EFF4FB" height="10" style="stroke:#2C5F9E;stroke-width:0.5;" width="15" x="605.706" y="256.26"/><rect fill="#EFF4FB" height="2" style="stroke:#2C5F9E;stroke-width:0.5;" width="4" x="603.706" y="258.26"/><rect fill="#EFF4FB" height="2" style="stroke:#2C5F9E;stroke-width:0.5;" width="4" x="603.706" y="262.26"/><text fill="#000000" font-family="Arial" font-size="13" font-style="italic" lengthAdjust="spacing" textLength="69.856" x="529.85" y="283.3269">&#171;external&#187;</text><text fill="#000000" font-family="Arial" font-size="13" lengthAdjust="spacing" textLength="45.7158" x="541.9201" y="298.4597">Sess&#227;o</text></g><!--link CO_C to CO_S--><g class="link" data-entity-1="ent0002" data-entity-2="ent0003" data-link-type="dependency" data-source-line="31" id="lnk5"><path d="M337.78,86.38 C337.78,104.01 337.78,123.31 337.78,140.93" fill="none" id="CO_C-to-CO_S" style="stroke:#444444;stroke-width:1;"/><polygon fill="#444444" points="337.78,145.93,341.78,136.93,337.78,140.93,333.78,136.93,337.78,145.93" style="stroke:#444444;stroke-width:1;stroke-linejoin:miter;stroke-miterlimit:10;"/><text fill="#000000" font-family="sans-serif" font-size="13" lengthAdjust="spacing" textLength="22.9785" x="314.78" y="112.2169">usa</text></g><!--link CO_C to ICo--><g class="link" data-entity-1="ent0002" data-entity-2="ent0004" data-link-type="association" data-source-line="32" id="lnk6"><path d="M418.71,64.53 C432.6,64.53 445.16,64.53 453.28,64.53" fill="none" id="CO_C-ICo" style="stroke:#444444;stroke-width:1;"/></g><!--link CO_S to EXT_AG--><g class="link" data-entity-1="ent0003" data-entity-2="ent0007" data-link-type="dependency" data-source-line="40" id="lnk11"><path d="M265.01,169.53 C186.56,169.53 72.78,169.53 72.78,169.53 C72.78,169.53 72.78,212.71 72.78,245.83" fill="none" id="CO_S-to-EXT_AG" style="stroke:#444444;stroke-width:1;stroke-dasharray:7,7;"/><polygon fill="#444444" points="72.78,250.83,76.78,241.83,72.78,245.83,68.78,241.83,72.78,250.83" style="stroke:#444444;stroke-width:1;stroke-linejoin:miter;stroke-miterlimit:10;"/><text fill="#000000" font-family="sans-serif" font-size="13" lengthAdjust="spacing" textLength="38.9175" x="89.25" y="165.5969">&#171;use&#187;</text></g><!--link CO_S to EXT_FI--><g class="link" data-entity-1="ent0003" data-entity-2="ent0008" data-link-type="dependency" data-source-line="41" id="lnk12"><path d="M298.42,191.5 C298.42,208.61 298.42,227.21 298.42,245.93" fill="none" id="CO_S-to-EXT_FI" style="stroke:#444444;stroke-width:1;stroke-dasharray:7,7;"/><polygon fill="#444444" points="298.42,250.93,302.42,241.93,298.42,245.93,294.42,241.93,298.42,250.93" style="stroke:#444444;stroke-width:1;stroke-linejoin:miter;stroke-miterlimit:10;"/><text fill="#000000" font-family="sans-serif" font-size="13" lengthAdjust="spacing" textLength="38.9175" x="259.42" y="217.2869">&#171;use&#187;</text></g><!--link CO_S to EXT_NO--><g class="link" data-entity-1="ent0003" data-entity-2="ent0009" data-link-type="dependency" data-source-line="42" id="lnk13"><path d="M388.34,191.5 C388.34,208.61 388.34,227.21 388.34,245.93" fill="none" id="CO_S-to-EXT_NO" style="stroke:#444444;stroke-width:1;stroke-dasharray:7,7;"/><polygon fill="#444444" points="388.34,250.93,392.34,241.93,388.34,245.93,384.34,241.93,388.34,250.93" style="stroke:#444444;stroke-width:1;stroke-linejoin:miter;stroke-miterlimit:10;"/><text fill="#000000" font-family="sans-serif" font-size="13" lengthAdjust="spacing" textLength="38.9175" x="349.34" y="217.2869">&#171;use&#187;</text></g><!--link CO_S to EXT_SE--><g class="link" data-entity-1="ent0003" data-entity-2="ent0010" data-link-type="dependency" data-source-line="43" id="lnk14"><path d="M410.55,169.53 C478.58,169.53 569.78,169.53 569.78,169.53 C569.78,169.53 569.78,212.71 569.78,245.83" fill="none" id="CO_S-to-EXT_SE" style="stroke:#444444;stroke-width:1;stroke-dasharray:7,7;"/><polygon fill="#444444" points="569.78,250.83,573.78,241.83,569.78,245.83,565.78,241.83,569.78,250.83" style="stroke:#444444;stroke-width:1;stroke-linejoin:miter;stroke-miterlimit:10;"/><text fill="#000000" font-family="sans-serif" font-size="13" lengthAdjust="spacing" textLength="38.9175" x="491.81" y="165.5969">&#171;use&#187;</text></g><?plantuml-src fLBDJjj04BxlKupI0nUC38HAH3IICLc4X4A5ELIg8ZIo9-uAUzTQRu2sucbww2FqNbwiumKd6rIVc8CjpVUxzkx0ftUCs86pj6uWWi-O6qSJI8rkLvL3Hgvb58zt_UiO_lw1wtaK7q2cIbKPXfdfB3hJmYNQ6ZN4-xl018BuaE5trHBjdT8DMgoXe2LoeHjwT4cbIbsJTf3pWsp0oatT6Dr1FmNmd69-LrgpqaLgAcFXmqpAiJnzmOmjoBxk3z8ZUJppUya7ccDDa5Y5rNgLgHy4-uVYAOXJNVmISngAatu6uqAlXhLO3Zl5NFm_JkFaeqoEthGSRpadrfg7dkud02kboNrl28nrtumGVOrHVmD6huqsd_Ph3_bVRwgAx0AmXVJgDXsYPcJlLKwB3dwXPfww-OAZYqtYUfZAQ-6fdJr4XNdGqTGRm0HMBGQOvpu94UGd9Ua2kyjY5XlFsPURs-GSJaxuDf7LM4sdeUYSMlVyou1K6dLEokAYLycBGTNSEBLKEJx_PksRiFdLe2oZjWq4eIgRRQk4F_NUthG_m8JnLKiCRI5SSW3X7WC8PwsHVm00?></g></svg>