<svg xmlns="http://www.w3.org/2000/svg" xmlns:xlink="http://www.w3.org/1999/xlink" contentStyleType="text/css" data-diagram-type="DESCRIPTION" height="325px" preserveAspectRatio="none" style="width:273px;height:325px;background:#FFFFFF;" version="1.1" viewBox="0 0 273 325" width="273px" zoomAndPan="magnify"><?plantuml 1.2026.5?><defs/><g><!--cluster Contrato--><g class="cluster" data-qualified-name="Contrato" data-source-line="25" id="ent0001"><path d="M8.5,6 L78.7139,6 A3.75,3.75 0 0 1 81.2139,8.5 L88.2139,28.2969 L248.5,28.2969 A2.5,2.5 0 0 1 251,30.7969 L251,204.76 A2.5,2.5 0 0 1 248.5,207.26 L8.5,207.26 A2.5,2.5 0 0 1 6,204.76 L6,8.5 A2.5,2.5 0 0 1 8.5,6" fill="#F0F4FF" style="stroke:#4A6FA5;stroke-width:1.5;"/><line style="stroke:#4A6FA5;stroke-width:1.5;" x1="6" x2="88.2139" y1="28.2969" y2="28.2969"/><text fill="#000000" font-family="sans-serif" font-size="14" font-weight="700" lengthAdjust="spacing" textLength="69.2139" x="10" y="20.9951">Contrato</text></g><!--entity CT_C--><g class="entity" data-qualified-name="Contrato.CT_C" data-source-line="26" id="ent0002"><rect fill="#EFF4FB" height="45.1328" rx="2.5" ry="2.5" style="stroke:#2C5F9E;stroke-width:0.5;" width="160.9609" x="21.52" y="41"/><rect fill="#EFF4FB" height="10" style="stroke:#2C5F9E;stroke-width:0.5;" width="15" x="162.4809" y="46"/><rect fill="#EFF4FB" height="2" style="stroke:#2C5F9E;stroke-width:0.5;" width="4" x="160.4809" y="48"/><rect fill="#EFF4FB" height="2" style="stroke:#2C5F9E;stroke-width:0.5;" width="4" x="160.4809" y="52"/><text fill="#000000" font-family="Arial" font-size="13" lengthAdjust="spacing" textLength="120.9609" x="36.52" y="73.0669">ContratoController</text></g><!--entity CT_S--><g class="entity" data-qualified-name="Contrato.CT_S" data-source-line="27" id="ent0003"><rect fill="#EFF4FB" height="45.1328" rx="2.5" ry="2.5" style="stroke:#2C5F9E;stroke-width:0.5;" width="144.7744" x="29.61" y="146.13"/><rect fill="#EFF4FB" height="10" style="stroke:#2C5F9E;stroke-width:0.5;" width="15" x="154.3844" y="151.13"/><rect fill="#EFF4FB" height="2" style="stroke:#2C5F9E;stroke-width:0.5;" width="4" x="152.3844" y="153.13"/><rect fill="#EFF4FB" height="2" style="stroke:#2C5F9E;stroke-width:0.5;" width="4" x="152.3844" y="157.13"/><text fill="#000000" font-family="Arial" font-size="13" lengthAdjust="spacing" textLength="104.7744" x="44.61" y="178.1969">ContratoService</text></g><!--entity ICt--><g class="entity" data-qualified-name="Contrato.ICt" data-source-line="28" id="ent0004"><ellipse cx="226" cy="63.57" fill="#FFFFFF" rx="8" ry="8" style="stroke:#2C5F9E;stroke-width:0.5;"/><text fill="#000000" font-family="sans-serif" font-size="14" lengthAdjust="spacing" textLength="65.2217" x="193.3892" y="93.5651">IContrato</text></g><!--entity EXT_US--><g class="entity" data-qualified-name="EXT_US" data-source-line="34" id="ent0007"><rect fill="#EFF4FB" height="60.2656" rx="2.5" ry="2.5" style="stroke:#2C5F9E;stroke-width:0.5;" width="111.856" x="46.07" y="251.26"/><rect fill="#EFF4FB" height="10" style="stroke:#2C5F9E;stroke-width:0.5;" width="15" x="137.926" y="256.26"/><rect fill="#EFF4FB" height="2" style="stroke:#2C5F9E;stroke-width:0.5;" width="4" x="135.926" y="258.26"/><rect fill="#EFF4FB" height="2" style="stroke:#2C5F9E;stroke-width:0.5;" width="4" x="135.926" y="262.26"/><text fill="#000000" font-family="Arial" font-size="13" font-style="italic" lengthAdjust="spacing" textLength="69.856" x="62.07" y="283.3269">&#171;external&#187;</text><text fill="#000000" font-family="Arial" font-size="13" lengthAdjust="spacing" textLength="56.1768" x="68.9096" y="298.4597">Usu&#225;rios</text></g><!--link CT_C to CT_S--><g class="link" data-entity-1="ent0002" data-entity-2="ent0003" data-link-type="dependency" data-source-line="30" id="lnk5"><path d="M102,86.38 C102,104.01 102,123.31 102,140.93" fill="none" id="CT_C-to-CT_S" style="stroke:#444444;stroke-width:1;"/><polygon fill="#444444" points="102,145.93,106,136.93,102,140.93,98,136.93,102,145.93" style="stroke:#444444;stroke-width:1;stroke-linejoin:miter;stroke-miterlimit:10;"/><text fill="#000000" font-family="sans-serif" font-size="13" lengthAdjust="spacing" textLength="22.9785" x="79" y="112.2169">usa</text></g><!--link CT_C to ICt--><g class="link" data-entity-1="ent0002" data-entity-2="ent0004" data-link-type="association" data-source-line="31" id="lnk6"><path d="M182.98,64.53 C196.58,64.53 208.83,64.53 216.75,64.53" fill="none" id="CT_C-ICt" style="stroke:#444444;stroke-width:1;"/></g><!--link CT_S to EXT_US--><g class="link" data-entity-1="ent0003" data-entity-2="ent0007" data-link-type="dependency" data-source-line="36" id="lnk8"><path d="M102,191.5 C102,208.61 102,227.21 102,245.93" fill="none" id="CT_S-to-EXT_US" style="stroke:#444444;stroke-width:1;stroke-dasharray:7,7;"/><polygon fill="#444444" points="102,250.93,106,241.93,102,245.93,98,241.93,102,250.93" style="stroke:#444444;stroke-width:1;stroke-linejoin:miter;stroke-miterlimit:10;"/><text fill="#000000" font-family="sans-serif" font-size="13" lengthAdjust="spacing" textLength="38.9175" x="63" y="217.2869">&#171;use&#187;</text></g><?plantuml-src fLB1IkH05BptLpnc3vuYipeZxA21J4n0M4HC1454ckGvDdRwnPVEwkxYntZq2xphZzbf9quKvsGTqkHLTLLrqnkmzms83TYFgne2E985MPn1JCQojEIOupGORqCU_qxW-GcEaopl_kUQRbfK13M_F0R5KkuLXy5u2aTCDIiiPOdEurlbH7EjJ2rPLb3YfMorpV7EHbejJ8N6Gk4-o0DLGLLDfgF-2t2Oo-9wmTIQCYPD33-ID9saypUEk4HUphVYQVehyVFKdUXGLWWHAwdVHvdwX_1pMzmFubGNVoaBN1UNUgoD6thLRgzSh7SQk-9VE4sYdJIQVcev-U0SCTDjB_SOa5ePj7zh169xHKBqDKRzEnWj6wskzgod_4fQ8v-3R23EB-9rqWpvZohmlAFVf9cNhcvmTB1AV8UJ7iHMU6bd3q59joO8lG7Ce6taWFFQUo46-ITD-_B0YXhVC3dDBquosDrrhmZPI1s6GdYhpSsmPsUERniCmrS0?></g></svg>