<svg xmlns="http://www.w3.org/2000/svg" xmlns:xlink="http://www.w3.org/1999/xlink" contentStyleType="text/css" data-diagram-type="DESCRIPTION" height="325px" preserveAspectRatio="none" style="width:431px;height:325px;background:#FFFFFF;" version="1.1" viewBox="0 0 431 325" width="431px" zoomAndPan="magnify"><?plantuml 1.2026.5?><defs/><g><!--cluster Gest?o Financeira--><g class="cluster" data-qualified-name="Gest.o Financeira" data-source-line="26" id="ent0001"><path d="M28.46,6 L172.0987,6 A3.75,3.75 0 0 1 174.5987,8.5 L181.5987,28.2969 L414.46,28.2969 A2.5,2.5 0 0 1 416.96,30.7969 L416.96,204.76 A2.5,2.5 0 0 1 414.46,207.26 L28.46,207.26 A2.5,2.5 0 0 1 25.96,204.76 L25.96,8.5 A2.5,2.5 0 0 1 28.46,6" fill="#F0F4FF" style="stroke:#4A6FA5;stroke-width:1.5;"/><line style="stroke:#4A6FA5;stroke-width:1.5;" x1="25.96" x2="181.5987" y1="28.2969" y2="28.2969"/><text fill="#000000" font-family="sans-serif" font-size="14" font-weight="700" lengthAdjust="spacing" textLength="142.6387" x="29.96" y="20.9951">Gest&#227;o Financeira</text></g><!--entity FI_C--><g class="entity" data-qualified-name="Gest.o Financeira.FI_C" data-source-line="27" id="ent0002"><rect fill="#EFF4FB" height="45.1328" rx="2.5" ry="2.5" style="stroke:#2C5F9E;stroke-width:0.5;" width="171.8218" x="42.05" y="41"/><rect fill="#EFF4FB" height="10" style="stroke:#2C5F9E;stroke-width:0.5;" width="15" x="193.8718" y="46"/><rect fill="#EFF4FB" height="2" style="stroke:#2C5F9E;stroke-width:0.5;" width="4" x="191.8718" y="48"/><rect fill="#EFF4FB" height="2" style="stroke:#2C5F9E;stroke-width:0.5;" width="4" x="191.8718" y="52"/><text fill="#000000" font-family="Arial" font-size="13" lengthAdjust="spacing" textLength="131.8218" x="57.05" y="73.0669">FinanceiroController</text></g><!--entity FI_W--><g class="entity" data-qualified-name="Gest.o Financeira.FI_W" data-source-line="28" id="ent0003"><rect fill="#EFF4FB" height="45.1328" rx="2.5" ry="2.5" style="stroke:#2C5F9E;stroke-width:0.5;" width="151.9663" x="248.98" y="41"/><rect fill="#EFF4FB" height="10" style="stroke:#2C5F9E;stroke-width:0.5;" width="15" x="380.9463" y="46"/><rect fill="#EFF4FB" height="2" style="stroke:#2C5F9E;stroke-width:0.5;" width="4" x="378.9463" y="48"/><rect fill="#EFF4FB" height="2" style="stroke:#2C5F9E;stroke-width:0.5;" width="4" x="378.9463" y="52"/><text fill="#000000" font-family="Arial" font-size="13" lengthAdjust="spacing" textLength="111.9663" x="263.98" y="73.0669">WebhookHandler</text></g><!--entity FI_S--><g class="entity" data-qualified-name="Gest.o Financeira.FI_S" data-source-line="29" id="ent0004"><rect fill="#EFF4FB" height="45.1328" rx="2.5" ry="2.5" style="stroke:#2C5F9E;stroke-width:0.5;" width="155.6353" x="121.14" y="146.13"/><rect fill="#EFF4FB" height="10" style="stroke:#2C5F9E;stroke-width:0.5;" width="15" x="256.7753" y="151.13"/><rect fill="#EFF4FB" height="2" style="stroke:#2C5F9E;stroke-width:0.5;" width="4" x="254.7753" y="153.13"/><rect fill="#EFF4FB" height="2" style="stroke:#2C5F9E;stroke-width:0.5;" width="4" x="254.7753" y="157.13"/><text fill="#000000" font-family="Arial" font-size="13" lengthAdjust="spacing" textLength="115.6353" x="136.14" y="178.1969">FinanceiroService</text></g><!--entity IFi--><g class="entity" data-qualified-name="Gest.o Financeira.IFi" data-source-line="30" id="ent0005"><ellipse cx="320.96" cy="168.7" fill="#FFFFFF" rx="8" ry="8" style="stroke:#2C5F9E;stroke-width:0.5;"/><text fill="#000000" font-family="sans-serif" font-size="14" lengthAdjust="spacing" textLength="76.918" x="282.501" y="198.6951">IFinanceiro</text></g><!--entity EXT_GW--><g class="entity" data-qualified-name="EXT_GW" data-source-line="37" id="ent0009"><rect fill="#EFF4FB" height="60.2656" rx="2.5" ry="2.5" style="stroke:#2C5F9E;stroke-width:0.5;" width="195.9175" x="7" y="251.26"/><rect fill="#EFF4FB" height="10" style="stroke:#2C5F9E;stroke-width:0.5;" width="15" x="182.9175" y="256.26"/><rect fill="#EFF4FB" height="2" style="stroke:#2C5F9E;stroke-width:0.5;" width="4" x="180.9175" y="258.26"/><rect fill="#EFF4FB" height="2" style="stroke:#2C5F9E;stroke-width:0.5;" width="4" x="180.9175" y="262.26"/><text fill="#000000" font-family="Arial" font-size="13" font-style="italic" lengthAdjust="spacing" textLength="69.856" x="65.0308" y="283.3269">&#171;external&#187;</text><text fill="#000000" font-family="Arial" font-size="13" lengthAdjust="spacing" textLength="155.9175" x="22" y="298.4597">Gateway de Pagamento</text></g><!--entity EXT_US--><g class="entity" data-qualified-name="EXT_US" data-source-line="38" id="ent0010"><rect fill="#EFF4FB" height="60.2656" rx="2.5" ry="2.5" style="stroke:#2C5F9E;stroke-width:0.5;" width="111.856" x="238.03" y="251.26"/><rect fill="#EFF4FB" height="10" style="stroke:#2C5F9E;stroke-width:0.5;" width="15" x="329.886" y="256.26"/><rect fill="#EFF4FB" height="2" style="stroke:#2C5F9E;stroke-width:0.5;" width="4" x="327.886" y="258.26"/><rect fill="#EFF4FB" height="2" style="stroke:#2C5F9E;stroke-width:0.5;" width="4" x="327.886" y="262.26"/><text fill="#000000" font-family="Arial" font-size="13" font-style="italic" lengthAdjust="spacing" textLength="69.856" x="254.03" y="283.3269">&#171;external&#187;</text><text fill="#000000" font-family="Arial" font-size="13" lengthAdjust="spacing" textLength="56.1768" x="260.8696" y="298.4597">Usu&#225;rios</text></g><!--link FI_C to FI_S--><g class="link" data-entity-1="ent0002" data-entity-2="ent0004" data-link-type="dependency" data-source-line="32" id="lnk6"><path d="M167.51,86.38 C167.51,104.01 167.51,123.31 167.51,140.93" fill="none" id="FI_C-to-FI_S" style="stroke:#444444;stroke-width:1;"/><polygon fill="#444444" points="167.51,145.93,171.51,136.93,167.51,140.93,163.51,136.93,167.51,145.93" style="stroke:#444444;stroke-width:1;stroke-linejoin:miter;stroke-miterlimit:10;"/><text fill="#000000" font-family="sans-serif" font-size="13" lengthAdjust="spacing" textLength="22.9785" x="144.51" y="112.2169">usa</text></g><!--link FI_W to FI_S--><g class="link" data-entity-1="ent0003" data-entity-2="ent0004" data-link-type="dependency" data-source-line="33" id="lnk7"><path d="M262.88,86.38 C262.88,104.01 262.88,123.31 262.88,140.93" fill="none" id="FI_W-to-FI_S" style="stroke:#444444;stroke-width:1;"/><polygon fill="#444444" points="262.88,145.93,266.88,136.93,262.88,140.93,258.88,136.93,262.88,145.93" style="stroke:#444444;stroke-width:1;stroke-linejoin:miter;stroke-miterlimit:10;"/><text fill="#000000" font-family="sans-serif" font-size="13" lengthAdjust="spacing" textLength="22.9785" x="239.88" y="112.2169">usa</text></g><!--link FI_S to IFi--><g class="link" data-entity-1="ent0004" data-entity-2="ent0005" data-link-type="association" data-source-line="34" id="lnk8"><path d="M277.26,169.53 C290.99,169.53 303.45,169.53 311.52,169.53" fill="none" id="FI_S-IFi" style="stroke:#444444;stroke-width:1;"/></g><!--link FI_S to EXT_GW--><g class="link" data-entity-1="ent0004" data-entity-2="ent0009" data-link-type="dependency" data-source-line="40" id="lnk11"><path d="M162.03,191.5 C162.03,208.61 162.03,227.21 162.03,245.93" fill="none" id="FI_S-to-EXT_GW" style="stroke:#444444;stroke-width:1;stroke-dasharray:7,7;"/><polygon fill="#444444" points="162.03,250.93,166.03,241.93,162.03,245.93,158.03,241.93,162.03,250.93" style="stroke:#444444;stroke-width:1;stroke-linejoin:miter;stroke-miterlimit:10;"/><text fill="#000000" font-family="sans-serif" font-size="13" lengthAdjust="spacing" textLength="38.9175" x="123.03" y="217.2869">&#171;use&#187;</text></g><!--link FI_S to EXT_US--><g class="link" data-entity-1="ent0004" data-entity-2="ent0010" data-link-type="dependency" data-source-line="41" id="lnk12"><path d="M257.4,191.5 C257.4,208.61 257.4,227.21 257.4,245.93" fill="none" id="FI_S-to-EXT_US" style="stroke:#444444;stroke-width:1;stroke-dasharray:7,7;"/><polygon fill="#444444" points="257.4,250.93,261.4,241.93,257.4,245.93,253.4,241.93,257.4,250.93" style="stroke:#444444;stroke-width:1;stroke-linejoin:miter;stroke-miterlimit:10;"/><text fill="#000000" font-family="sans-serif" font-size="13" lengthAdjust="spacing" textLength="38.9175" x="218.4" y="217.2869">&#171;use&#187;</text></g><?plantuml-src fLDDJzj04BtlhnYb1qwX0K9L8Xh9k750GWZ5ZbAfYj1WJymgzewrNZUb5J-cwfbpxyqVwzhvi4ERNdY7FSnxysPszVO0Fhm2uW0-kca6RRZ5a0trO4YvMVvayAH25PBKQ3KZhzrv3oCAvJtdyFiNZ6vivGXSBJF3iSQPB6KkAwFHMCarwXGLT8w1e7DITape_e5v3fZdosSLQbOCbq5mwxyDhdtR-wfRY7mkLOOQKuXeXaLY0lfgd4J6AYLb8BG7wOOgv3HZLLBV1LXSO3YFDHSgSZbX3My6djVrBbOSwuZqkdxiddfdWwhksTlUO4hWQ8d9jkJBRmH79-AfCKwMusSOqhvnNeMzuvfUcUt5UBzJnox-3wUkyyvpJbzisTrnThJcnKPUeK4cKf5vp0XOcmSMOhD6w-_0jDQxrO_yUKjobH5E4j9JcmNmhkxSb-9rL2vHHPLiXPLuij_P9_r5XZIjnNubhX-_TLMhMx255Lj2hDx6xWFjY1UgtQyie0T5ZXjkyX_Ejx-ez7aIeh7V40qjyD7cqdwn6CiuSdNpmQVWRZY1ytERLD8Aatw_sJVEY-KFBJcVGXFhnh6_soYg-OU7_Orjp_95JfRQOSP-pVm1?></g></svg>