<svg xmlns="http://www.w3.org/2000/svg" xmlns:xlink="http://www.w3.org/1999/xlink" contentStyleType="text/css" data-diagram-type="DESCRIPTION" height="325px" preserveAspectRatio="none" style="width:408px;height:325px;background:#FFFFFF;" version="1.1" viewBox="0 0 408 325" width="408px" zoomAndPan="magnify"><?plantuml 1.2026.5?><defs/><g><!--cluster Prontu?rio--><g class="cluster" data-qualified-name="Prontu.rio" data-source-line="26" id="ent0001"><path d="M8.5,6 L93.6777,6 A3.75,3.75 0 0 1 96.1777,8.5 L103.1777,28.2969 L390.5,28.2969 A2.5,2.5 0 0 1 393,30.7969 L393,204.76 A2.5,2.5 0 0 1 390.5,207.26 L8.5,207.26 A2.5,2.5 0 0 1 6,204.76 L6,8.5 A2.5,2.5 0 0 1 8.5,6" fill="#F0F4FF" style="stroke:#4A6FA5;stroke-width:1.5;"/><line style="stroke:#4A6FA5;stroke-width:1.5;" x1="6" x2="103.1777" y1="28.2969" y2="28.2969"/><text fill="#000000" font-family="sans-serif" font-size="14" font-weight="700" lengthAdjust="spacing" textLength="84.1777" x="10" y="20.9951">Prontu&#225;rio</text></g><!--entity PR_C--><g class="entity" data-qualified-name="Prontu.rio.PR_C" data-source-line="27" id="ent0002"><rect fill="#EFF4FB" height="45.1328" rx="2.5" ry="2.5" style="stroke:#2C5F9E;stroke-width:0.5;" width="171.8218" x="87.09" y="41"/><rect fill="#EFF4FB" height="10" style="stroke:#2C5F9E;stroke-width:0.5;" width="15" x="238.9118" y="46"/><rect fill="#EFF4FB" height="2" style="stroke:#2C5F9E;stroke-width:0.5;" width="4" x="236.9118" y="48"/><rect fill="#EFF4FB" height="2" style="stroke:#2C5F9E;stroke-width:0.5;" width="4" x="236.9118" y="52"/><text fill="#000000" font-family="Arial" font-size="13" lengthAdjust="spacing" textLength="131.8218" x="102.09" y="73.0669">ProntuarioController</text></g><!--entity PR_S--><g class="entity" data-qualified-name="Prontu.rio.PR_S" data-source-line="28" id="ent0003"><rect fill="#EFF4FB" height="45.1328" rx="2.5" ry="2.5" style="stroke:#2C5F9E;stroke-width:0.5;" width="155.6353" x="22.18" y="146.13"/><rect fill="#EFF4FB" height="10" style="stroke:#2C5F9E;stroke-width:0.5;" width="15" x="157.8153" y="151.13"/><rect fill="#EFF4FB" height="2" style="stroke:#2C5F9E;stroke-width:0.5;" width="4" x="155.8153" y="153.13"/><rect fill="#EFF4FB" height="2" style="stroke:#2C5F9E;stroke-width:0.5;" width="4" x="155.8153" y="157.13"/><text fill="#000000" font-family="Arial" font-size="13" lengthAdjust="spacing" textLength="115.6353" x="37.18" y="178.1969">ProntuarioService</text></g><!--entity PR_T--><g class="entity" data-qualified-name="Prontu.rio.PR_T" data-source-line="29" id="ent0004"><rect fill="#EFF4FB" height="45.1328" rx="2.5" ry="2.5" style="stroke:#2C5F9E;stroke-width:0.5;" width="163.481" x="213.26" y="146.13"/><rect fill="#EFF4FB" height="10" style="stroke:#2C5F9E;stroke-width:0.5;" width="15" x="356.741" y="151.13"/><rect fill="#EFF4FB" height="2" style="stroke:#2C5F9E;stroke-width:0.5;" width="4" x="354.741" y="153.13"/><rect fill="#EFF4FB" height="2" style="stroke:#2C5F9E;stroke-width:0.5;" width="4" x="354.741" y="157.13"/><text fill="#000000" font-family="Arial" font-size="13" lengthAdjust="spacing" textLength="123.481" x="228.26" y="178.1969">TranscricaoService</text></g><!--entity IPr--><g class="entity" data-qualified-name="Prontu.rio.IPr" data-source-line="30" id="ent0005"><ellipse cx="303" cy="63.57" fill="#FFFFFF" rx="8" ry="8" style="stroke:#2C5F9E;stroke-width:0.5;"/><text fill="#000000" font-family="sans-serif" font-size="14" lengthAdjust="spacing" textLength="76.918" x="264.541" y="93.5651">IProntuario</text></g><!--entity EXT_IA--><g class="entity" data-qualified-name="EXT_IA" data-source-line="37" id="ent0009"><rect fill="#EFF4FB" height="60.2656" rx="2.5" ry="2.5" style="stroke:#2C5F9E;stroke-width:0.5;" width="114.8071" x="237.6" y="251.26"/><rect fill="#EFF4FB" height="10" style="stroke:#2C5F9E;stroke-width:0.5;" width="15" x="332.4071" y="256.26"/><rect fill="#EFF4FB" height="2" style="stroke:#2C5F9E;stroke-width:0.5;" width="4" x="330.4071" y="258.26"/><rect fill="#EFF4FB" height="2" style="stroke:#2C5F9E;stroke-width:0.5;" width="4" x="330.4071" y="262.26"/><text fill="#000000" font-family="Arial" font-size="13" font-style="italic" lengthAdjust="spacing" textLength="69.856" x="255.0756" y="283.3269">&#171;external&#187;</text><text fill="#000000" font-family="Arial" font-size="13" lengthAdjust="spacing" textLength="74.8071" x="252.6" y="298.4597">Motor de IA</text></g><!--entity EXT_US--><g class="entity" data-qualified-name="EXT_US" data-source-line="38" id="ent0010"><rect fill="#EFF4FB" height="60.2656" rx="2.5" ry="2.5" style="stroke:#2C5F9E;stroke-width:0.5;" width="111.856" x="44.07" y="251.26"/><rect fill="#EFF4FB" height="10" style="stroke:#2C5F9E;stroke-width:0.5;" width="15" x="135.926" y="256.26"/><rect fill="#EFF4FB" height="2" style="stroke:#2C5F9E;stroke-width:0.5;" width="4" x="133.926" y="258.26"/><rect fill="#EFF4FB" height="2" style="stroke:#2C5F9E;stroke-width:0.5;" width="4" x="133.926" y="262.26"/><text fill="#000000" font-family="Arial" font-size="13" font-style="italic" lengthAdjust="spacing" textLength="69.856" x="60.07" y="283.3269">&#171;external&#187;</text><text fill="#000000" font-family="Arial" font-size="13" lengthAdjust="spacing" textLength="56.1768" x="66.9096" y="298.4597">Usu&#225;rios</text></g><!--link PR_C to PR_S--><g class="link" data-entity-1="ent0002" data-entity-2="ent0003" data-link-type="dependency" data-source-line="32" id="lnk6"><path d="M132.45,86.38 C132.45,104.01 132.45,123.31 132.45,140.93" fill="none" id="PR_C-to-PR_S" style="stroke:#444444;stroke-width:1;"/><polygon fill="#444444" points="132.45,145.93,136.45,136.93,132.45,140.93,128.45,136.93,132.45,145.93" style="stroke:#444444;stroke-width:1;stroke-linejoin:miter;stroke-miterlimit:10;"/><text fill="#000000" font-family="sans-serif" font-size="13" lengthAdjust="spacing" textLength="22.9785" x="109.45" y="112.2169">usa</text></g><!--link PR_C to PR_T--><g class="link" data-entity-1="ent0002" data-entity-2="ent0004" data-link-type="dependency" data-source-line="33" id="lnk7"><path d="M236.09,86.38 C236.09,104.01 236.09,123.31 236.09,140.93" fill="none" id="PR_C-to-PR_T" style="stroke:#444444;stroke-width:1;"/><polygon fill="#444444" points="236.09,145.93,240.09,136.93,236.09,140.93,232.09,136.93,236.09,145.93" style="stroke:#444444;stroke-width:1;stroke-linejoin:miter;stroke-miterlimit:10;"/><text fill="#000000" font-family="sans-serif" font-size="13" lengthAdjust="spacing" textLength="22.9785" x="213.09" y="112.2169">usa</text></g><!--link PR_C to IPr--><g class="link" data-entity-1="ent0002" data-entity-2="ent0005" data-link-type="association" data-source-line="34" id="lnk8"><path d="M259.35,64.53 C273.23,64.53 285.65,64.53 293.66,64.53" fill="none" id="PR_C-IPr" style="stroke:#444444;stroke-width:1;"/></g><!--link PR_T to EXT_IA--><g class="link" data-entity-1="ent0004" data-entity-2="ent0009" data-link-type="dependency" data-source-line="40" id="lnk11"><path d="M295,191.5 C295,208.61 295,227.21 295,245.93" fill="none" id="PR_T-to-EXT_IA" style="stroke:#444444;stroke-width:1;stroke-dasharray:7,7;"/><polygon fill="#444444" points="295,250.93,299,241.93,295,245.93,291,241.93,295,250.93" style="stroke:#444444;stroke-width:1;stroke-linejoin:miter;stroke-miterlimit:10;"/><text fill="#000000" font-family="sans-serif" font-size="13" lengthAdjust="spacing" textLength="38.9175" x="256" y="217.2869">&#171;use&#187;</text></g><!--link PR_S to EXT_US--><g class="link" data-entity-1="ent0003" data-entity-2="ent0010" data-link-type="dependency" data-source-line="41" id="lnk12"><path d="M100,191.5 C100,208.61 100,227.21 100,245.93" fill="none" id="PR_S-to-EXT_US" style="stroke:#444444;stroke-width:1;stroke-dasharray:7,7;"/><polygon fill="#444444" points="100,250.93,104,241.93,100,245.93,96,241.93,100,250.93" style="stroke:#444444;stroke-width:1;stroke-linejoin:miter;stroke-miterlimit:10;"/><text fill="#000000" font-family="sans-serif" font-size="13" lengthAdjust="spacing" textLength="38.9175" x="61" y="217.2869">&#171;use&#187;</text></g><?plantuml-src fPFDJjj04CVl-nIZzC0fuAG95H6DPDninQ5HX1sfKeNGo5xI5VQkDROBBSh3e1vu1ExanJfUOs8eEJ67rMh-l_dOyNWFFh_3n1vy2R8S-h30s9Pg0WkofgmsTwGjYsUoxmtWyS5TXZ2xoIsLkBdV_BNEEw_bhnLIWZ06DBQeW-OC7q94Q8gOT4EV-aq0IvyWa0lmlC71qFEEEE1TBn35bJOv4cQGg4kiqZ9IDwMVwfN9b2aXvaDHXufjbbjJIxS2s4umlbgHhKmIsDGIV9X9EP8dZMOfKVJa7mPZUJHpVib3ccEcm2UDwRChr7yK33wATQUShijVOgnsbPFETfRhviev5bUxCtdS-1kPHlwXzCUlkXozoEmJsUiMTzOHKsrK-JjNm1__fnMYRQFNMPRUKrFRwVveL6Gnu0lPD5Lq3bZ0ukmYs0s7YdxfM9tNG0E7h-5sjMBiqWqSENWxzTxfDdKFderX5eI3wtwWdzXhqv-wUZ21gi0tjUW_pULP2z7fxvijUP29ugrt3vvzZoxu1pW-virKP32TJhluicXcMBHlhlbb-98NhlZ-_hJDDc6zAXHBhkLMMOPRvHy0?></g></svg>