<svg xmlns="http://www.w3.org/2000/svg" xmlns:xlink="http://www.w3.org/1999/xlink" contentStyleType="text/css" data-diagram-type="DESCRIPTION" height="325px" preserveAspectRatio="none" style="width:296px;height:325px;background:#FFFFFF;" version="1.1" viewBox="0 0 296 325" width="296px" zoomAndPan="magnify"><?plantuml 1.2026.5?><defs/><g><!--cluster Sess?o--><g class="cluster" data-qualified-name="Sess.o" data-source-line="25" id="ent0001"><path d="M47.43,6 L103.7396,6 A3.75,3.75 0 0 1 106.2396,8.5 L113.2396,28.2969 L277.43,28.2969 A2.5,2.5 0 0 1 279.93,30.7969 L279.93,204.76 A2.5,2.5 0 0 1 277.43,207.26 L47.43,207.26 A2.5,2.5 0 0 1 44.93,204.76 L44.93,8.5 A2.5,2.5 0 0 1 47.43,6" fill="#F0F4FF" style="stroke:#4A6FA5;stroke-width:1.5;"/><line style="stroke:#4A6FA5;stroke-width:1.5;" x1="44.93" x2="113.2396" y1="28.2969" y2="28.2969"/><text fill="#000000" font-family="sans-serif" font-size="14" font-weight="700" lengthAdjust="spacing" textLength="55.3096" x="48.93" y="20.9951">Sess&#227;o</text></g><!--entity SE_C--><g class="entity" data-qualified-name="Sess.o.SE_C" data-source-line="26" id="ent0002"><rect fill="#EFF4FB" height="45.1328" rx="2.5" ry="2.5" style="stroke:#2C5F9E;stroke-width:0.5;" width="149.9478" x="60.95" y="41"/><rect fill="#EFF4FB" height="10" style="stroke:#2C5F9E;stroke-width:0.5;" width="15" x="190.8978" y="46"/><rect fill="#EFF4FB" height="2" style="stroke:#2C5F9E;stroke-width:0.5;" width="4" x="188.8978" y="48"/><rect fill="#EFF4FB" height="2" style="stroke:#2C5F9E;stroke-width:0.5;" width="4" x="188.8978" y="52"/><text fill="#000000" font-family="Arial" font-size="13" lengthAdjust="spacing" textLength="109.9478" x="75.95" y="73.0669">SessaoController</text></g><!--entity SE_S--><g class="entity" data-qualified-name="Sess.o.SE_S" data-source-line="27" id="ent0003"><rect fill="#EFF4FB" height="45.1328" rx="2.5" ry="2.5" style="stroke:#2C5F9E;stroke-width:0.5;" width="133.7612" x="69.05" y="146.13"/><rect fill="#EFF4FB" height="10" style="stroke:#2C5F9E;stroke-width:0.5;" width="15" x="182.8112" y="151.13"/><rect fill="#EFF4FB" height="2" style="stroke:#2C5F9E;stroke-width:0.5;" width="4" x="180.8112" y="153.13"/><rect fill="#EFF4FB" height="2" style="stroke:#2C5F9E;stroke-width:0.5;" width="4" x="180.8112" y="157.13"/><text fill="#000000" font-family="Arial" font-size="13" lengthAdjust="spacing" textLength="93.7612" x="84.05" y="178.1969">SessaoService</text></g><!--entity ISe--><g class="entity" data-qualified-name="Sess.o.ISe" data-source-line="28" id="ent0004"><ellipse cx="254.93" cy="63.57" fill="#FFFFFF" rx="8" ry="8" style="stroke:#2C5F9E;stroke-width:0.5;"/><text fill="#000000" font-family="sans-serif" font-size="14" lengthAdjust="spacing" textLength="53.3613" x="228.2493" y="93.5651">ISessao</text></g><!--entity EXT_PR--><g class="entity" data-qualified-name="EXT_PR" data-source-line="34" id="ent0007"><rect fill="#EFF4FB" height="60.2656" rx="2.5" ry="2.5" style="stroke:#2C5F9E;stroke-width:0.5;" width="111.856" x="7" y="251.26"/><rect fill="#EFF4FB" height="10" style="stroke:#2C5F9E;stroke-width:0.5;" width="15" x="98.856" y="256.26"/><rect fill="#EFF4FB" height="2" style="stroke:#2C5F9E;stroke-width:0.5;" width="4" x="96.856" y="258.26"/><rect fill="#EFF4FB" height="2" style="stroke:#2C5F9E;stroke-width:0.5;" width="4" x="96.856" y="262.26"/><text fill="#000000" font-family="Arial" font-size="13" font-style="italic" lengthAdjust="spacing" textLength="69.856" x="23" y="283.3269">&#171;external&#187;</text><text fill="#000000" font-family="Arial" font-size="13" lengthAdjust="spacing" textLength="67.5898" x="24.1331" y="298.4597">Prontu&#225;rio</text></g><!--entity EXT_CO--><g class="entity" data-qualified-name="EXT_CO" data-source-line="35" id="ent0008"><rect fill="#EFF4FB" height="60.2656" rx="2.5" ry="2.5" style="stroke:#2C5F9E;stroke-width:0.5;" width="111.856" x="154" y="251.26"/><rect fill="#EFF4FB" height="10" style="stroke:#2C5F9E;stroke-width:0.5;" width="15" x="245.856" y="256.26"/><rect fill="#EFF4FB" height="2" style="stroke:#2C5F9E;stroke-width:0.5;" width="4" x="243.856" y="258.26"/><rect fill="#EFF4FB" height="2" style="stroke:#2C5F9E;stroke-width:0.5;" width="4" x="243.856" y="262.26"/><text fill="#000000" font-family="Arial" font-size="13" font-style="italic" lengthAdjust="spacing" textLength="69.856" x="170" y="283.3269">&#171;external&#187;</text><text fill="#000000" font-family="Arial" font-size="13" lengthAdjust="spacing" textLength="56.9575" x="176.4492" y="298.4597">Consulta</text></g><!--link SE_C to SE_S--><g class="link" data-entity-1="ent0002" data-entity-2="ent0003" data-link-type="dependency" data-source-line="30" id="lnk5"><path d="M135.93,86.38 C135.93,104.01 135.93,123.31 135.93,140.93" fill="none" id="SE_C-to-SE_S" style="stroke:#444444;stroke-width:1;"/><polygon fill="#444444" points="135.93,145.93,139.93,136.93,135.93,140.93,131.93,136.93,135.93,145.93" style="stroke:#444444;stroke-width:1;stroke-linejoin:miter;stroke-miterlimit:10;"/><text fill="#000000" font-family="sans-serif" font-size="13" lengthAdjust="spacing" textLength="22.9785" x="112.93" y="112.2169">usa</text></g><!--link SE_C to ISe--><g class="link" data-entity-1="ent0002" data-entity-2="ent0004" data-link-type="association" data-source-line="31" id="lnk6"><path d="M211.29,64.53 C224.95,64.53 237.4,64.53 245.47,64.53" fill="none" id="SE_C-ISe" style="stroke:#444444;stroke-width:1;"/></g><!--link SE_S to EXT_PR--><g class="link" data-entity-1="ent0003" data-entity-2="ent0007" data-link-type="dependency" data-source-line="37" id="lnk9"><path d="M93.95,191.5 C93.95,208.61 93.95,227.21 93.95,245.93" fill="none" id="SE_S-to-EXT_PR" style="stroke:#444444;stroke-width:1;stroke-dasharray:7,7;"/><polygon fill="#444444" points="93.95,250.93,97.95,241.93,93.95,245.93,89.95,241.93,93.95,250.93" style="stroke:#444444;stroke-width:1;stroke-linejoin:miter;stroke-miterlimit:10;"/><text fill="#000000" font-family="sans-serif" font-size="13" lengthAdjust="spacing" textLength="38.9175" x="54.95" y="217.2869">&#171;use&#187;</text></g><!--link SE_S to EXT_CO--><g class="link" data-entity-1="ent0003" data-entity-2="ent0008" data-link-type="dependency" data-source-line="38" id="lnk10"><path d="M178.4,191.5 C178.4,208.61 178.4,227.21 178.4,245.93" fill="none" id="SE_S-to-EXT_CO" style="stroke:#444444;stroke-width:1;stroke-dasharray:7,7;"/><polygon fill="#444444" points="178.4,250.93,182.4,241.93,178.4,245.93,174.4,241.93,178.4,250.93" style="stroke:#444444;stroke-width:1;stroke-linejoin:miter;stroke-miterlimit:10;"/><text fill="#000000" font-family="sans-serif" font-size="13" lengthAdjust="spacing" textLength="38.9175" x="139.4" y="217.2869">&#171;use&#187;</text></g><?plantuml-src fPBFJi904CRl-nGJF72gGKMD14bAPHClIYW74qF8fWouiTrjPbl_neSn7dm03zxbnTnk-LECd9X33_Fxvljccwd3-Gx5wd0H92buq1UHph058Hep_z0M3BZNE80-QPNbytUI6WBUXvzl65nPSWANFgJpB-EPSg8aNkCKXYIKYKZEFqkZdHPavbwgL918O89JaSVP49yoFvOpbQ3A8B8Vf8egqacgLO5U6TZgYkX-HZfNaq37cc2lntcJTqkcQOAqw1y6n_oiv_hSllbA90W-IH6lMg5yGJWuOc-LE5d4JqM4s-AugwrnLQ_KpehPTgU6NVmVfwP_mltZFrisDvnz8lsubBkgm5Wgp9vJ14tPdMPikKPjSGkrnKBhFtjR4A43cqOwZf5680o4lN7mlp14Uf0HZWfO2aCdNF-yscMfhC6ghD0scHCMrk1DzAFoEcuSMf0RKM5E-yPO9Rjokcw_tirmt1z0ksqF24c9kDEfokrhZ3qlCIgp2tLmlQbcBdf_lxFqQbcU6xHeWzYv5Va5?></g></svg>