<svg xmlns="http://www.w3.org/2000/svg" xmlns:xlink="http://www.w3.org/1999/xlink" contentStyleType="text/css" data-diagram-type="DESCRIPTION" height="325px" preserveAspectRatio="none" style="width:344px;height:325px;background:#FFFFFF;" version="1.1" viewBox="0 0 344 325" width="344px" zoomAndPan="magnify"><?plantuml 1.2026.5?><defs/><g><!--cluster Usu?rios--><g class="cluster" data-qualified-name="Usu.rios" data-source-line="25" id="ent0001"><path d="M8.5,6 L78.2695,6 A3.75,3.75 0 0 1 80.7695,8.5 L87.7695,28.2969 L326.5,28.2969 A2.5,2.5 0 0 1 329,30.7969 L329,204.76 A2.5,2.5 0 0 1 326.5,207.26 L8.5,207.26 A2.5,2.5 0 0 1 6,204.76 L6,8.5 A2.5,2.5 0 0 1 8.5,6" fill="#F0F4FF" style="stroke:#4A6FA5;stroke-width:1.5;"/><line style="stroke:#4A6FA5;stroke-width:1.5;" x1="6" x2="87.7695" y1="28.2969" y2="28.2969"/><text fill="#000000" font-family="sans-serif" font-size="14" font-weight="700" lengthAdjust="spacing" textLength="68.7695" x="10" y="20.9951">Usu&#225;rios</text></g><!--entity US_C--><g class="entity" data-qualified-name="Usu.rios.US_C" data-source-line="26" id="ent0002"><rect fill="#EFF4FB" height="45.1328" rx="2.5" ry="2.5" style="stroke:#2C5F9E;stroke-width:0.5;" width="153.6357" x="64.18" y="41"/><rect fill="#EFF4FB" height="10" style="stroke:#2C5F9E;stroke-width:0.5;" width="15" x="197.8157" y="46"/><rect fill="#EFF4FB" height="2" style="stroke:#2C5F9E;stroke-width:0.5;" width="4" x="195.8157" y="48"/><rect fill="#EFF4FB" height="2" style="stroke:#2C5F9E;stroke-width:0.5;" width="4" x="195.8157" y="52"/><text fill="#000000" font-family="Arial" font-size="13" lengthAdjust="spacing" textLength="113.6357" x="79.18" y="73.0669">UsuarioController</text></g><!--entity US_A--><g class="entity" data-qualified-name="Usu.rios.US_A" data-source-line="27" id="ent0003"><rect fill="#EFF4FB" height="45.1328" rx="2.5" ry="2.5" style="stroke:#2C5F9E;stroke-width:0.5;" width="118.5142" x="21.74" y="146.13"/><rect fill="#EFF4FB" height="10" style="stroke:#2C5F9E;stroke-width:0.5;" width="15" x="120.2542" y="151.13"/><rect fill="#EFF4FB" height="2" style="stroke:#2C5F9E;stroke-width:0.5;" width="4" x="118.2542" y="153.13"/><rect fill="#EFF4FB" height="2" style="stroke:#2C5F9E;stroke-width:0.5;" width="4" x="118.2542" y="157.13"/><text fill="#000000" font-family="Arial" font-size="13" lengthAdjust="spacing" textLength="78.5142" x="36.74" y="178.1969">AuthService</text></g><!--entity US_S--><g class="entity" data-qualified-name="Usu.rios.US_S" data-source-line="28" id="ent0004"><rect fill="#EFF4FB" height="45.1328" rx="2.5" ry="2.5" style="stroke:#2C5F9E;stroke-width:0.5;" width="137.4492" x="175.28" y="146.13"/><rect fill="#EFF4FB" height="10" style="stroke:#2C5F9E;stroke-width:0.5;" width="15" x="292.7292" y="151.13"/><rect fill="#EFF4FB" height="2" style="stroke:#2C5F9E;stroke-width:0.5;" width="4" x="290.7292" y="153.13"/><rect fill="#EFF4FB" height="2" style="stroke:#2C5F9E;stroke-width:0.5;" width="4" x="290.7292" y="157.13"/><text fill="#000000" font-family="Arial" font-size="13" lengthAdjust="spacing" textLength="97.4492" x="190.28" y="178.1969">UsuarioService</text></g><!--entity IUs--><g class="entity" data-qualified-name="Usu.rios.IUs" data-source-line="29" id="ent0005"><ellipse cx="262" cy="63.57" fill="#FFFFFF" rx="8" ry="8" style="stroke:#2C5F9E;stroke-width:0.5;"/><text fill="#000000" font-family="sans-serif" font-size="14" lengthAdjust="spacing" textLength="64.627" x="229.6865" y="93.5651">IUsuarios</text></g><!--entity EXT_CT--><g class="entity" data-qualified-name="EXT_CT" data-source-line="36" id="ent0009"><rect fill="#EFF4FB" height="60.2656" rx="2.5" ry="2.5" style="stroke:#2C5F9E;stroke-width:0.5;" width="111.856" x="188.07" y="251.26"/><rect fill="#EFF4FB" height="10" style="stroke:#2C5F9E;stroke-width:0.5;" width="15" x="279.926" y="256.26"/><rect fill="#EFF4FB" height="2" style="stroke:#2C5F9E;stroke-width:0.5;" width="4" x="277.926" y="258.26"/><rect fill="#EFF4FB" height="2" style="stroke:#2C5F9E;stroke-width:0.5;" width="4" x="277.926" y="262.26"/><text fill="#000000" font-family="Arial" font-size="13" font-style="italic" lengthAdjust="spacing" textLength="69.856" x="204.07" y="283.3269">&#171;external&#187;</text><text fill="#000000" font-family="Arial" font-size="13" lengthAdjust="spacing" textLength="56.729" x="210.6335" y="298.4597">Contrato</text></g><!--link US_C to US_A--><g class="link" data-entity-1="ent0002" data-entity-2="ent0003" data-link-type="dependency" data-source-line="31" id="lnk6"><path d="M102.22,86.38 C102.22,104.01 102.22,123.31 102.22,140.93" fill="none" id="US_C-to-US_A" style="stroke:#444444;stroke-width:1;"/><polygon fill="#444444" points="102.22,145.93,106.22,136.93,102.22,140.93,98.22,136.93,102.22,145.93" style="stroke:#444444;stroke-width:1;stroke-linejoin:miter;stroke-miterlimit:10;"/><text fill="#000000" font-family="sans-serif" font-size="13" lengthAdjust="spacing" textLength="22.9785" x="79.22" y="112.2169">usa</text></g><!--link US_C to US_S--><g class="link" data-entity-1="ent0002" data-entity-2="ent0004" data-link-type="dependency" data-source-line="32" id="lnk7"><path d="M196.55,86.38 C196.55,104.01 196.55,123.31 196.55,140.93" fill="none" id="US_C-to-US_S" style="stroke:#444444;stroke-width:1;"/><polygon fill="#444444" points="196.55,145.93,200.55,136.93,196.55,140.93,192.55,136.93,196.55,145.93" style="stroke:#444444;stroke-width:1;stroke-linejoin:miter;stroke-miterlimit:10;"/><text fill="#000000" font-family="sans-serif" font-size="13" lengthAdjust="spacing" textLength="22.9785" x="173.55" y="112.2169">usa</text></g><!--link US_C to IUs--><g class="link" data-entity-1="ent0002" data-entity-2="ent0005" data-link-type="association" data-source-line="33" id="lnk8"><path d="M218.32,64.53 C232.03,64.53 244.48,64.53 252.56,64.53" fill="none" id="US_C-IUs" style="stroke:#444444;stroke-width:1;"/></g><!--link US_S to EXT_CT--><g class="link" data-entity-1="ent0004" data-entity-2="ent0009" data-link-type="dependency" data-source-line="38" id="lnk10"><path d="M244,191.5 C244,208.61 244,227.21 244,245.93" fill="none" id="US_S-to-EXT_CT" style="stroke:#444444;stroke-width:1;stroke-dasharray:7,7;"/><polygon fill="#444444" points="244,250.93,248,241.93,244,245.93,240,241.93,244,250.93" style="stroke:#444444;stroke-width:1;stroke-linejoin:miter;stroke-miterlimit:10;"/><text fill="#000000" font-family="sans-serif" font-size="13" lengthAdjust="spacing" textLength="38.9175" x="205" y="217.2869">&#171;use&#187;</text></g><?plantuml-src fLBBIiGm5DtdAoxZmbLbr55mq4Aj3GWgOYi88X8wrrfiSyjjwXC_Hbpu2UwT7pEJpZZrCIll8f1pJiuv2Lc6dN-CM8QziAp0WsELai4XdDRD-8LpgYrr8ht-EYJXGGGVxt1oPBThS2Y3TkVr1t28cXXh1qHnCk5Zp1WpDNuRlvBr-5SxKT_akbAiIXZXbMeAa-2z2OeyqoLg0wbTa3kgbCgAz8Hw4c1dLwKt6LEZHo4LnB0KIJcGkor7F4AUuclXXjoA72v9coDL8WISg-8BYlD7XDLryTo9ooVnLoh5HN7IpSAuhbTbpwfiiLFV5l_3QH1ioc3ZHyl1D-U0cUvcSZSTiiWrceSAWTXSan2p6hslZz2RLfg_xRdbbAL26yXK5CWNe6euZI_3dygWCTSnycsUuWMqqog31PvTSQkCdNB-rBtzgTGsWxcdHOLJJcg0Dw8xxVak2ORGrEfFBlx5EPzd8JhDt3ML8NV9w2ov31FOthOV4LchmlU5S4uhA_wC7Lg-gT7tFm40?></g></svg>