<svg xmlns="http://www.w3.org/2000/svg" xmlns:xlink="http://www.w3.org/1999/xlink" contentStyleType="text/css" data-diagram-type="DESCRIPTION" height="928px" preserveAspectRatio="none" style="width:1455px;height:928px;background:#FFFFFF;" version="1.1" viewBox="0 0 1455 928" width="1455px" zoomAndPan="magnify"><?plantuml 1.2026.5?><defs/><g><!--cluster Cliente--><g class="cluster" data-qualified-name="Cliente" data-source-line="12" id="ent0001"><polygon fill="#ADD8E6" points="104,16,114,6,408,6,408,243.89,398,253.89,104,253.89,104,16" style="stroke:#00008B;stroke-width:1;stroke-linejoin:miter;stroke-miterlimit:10;"/><line style="stroke:#00008B;stroke-width:1;" x1="398" x2="408" y1="16" y2="6"/><line style="stroke:#00008B;stroke-width:1;" x1="104" x2="398" y1="16" y2="16"/><line style="stroke:#00008B;stroke-width:1;" x1="398" x2="398" y1="16" y2="253.89"/><text fill="#000000" font-family="sans-serif" font-size="14" font-style="italic" lengthAdjust="spacing" textLength="63.1162" x="220.4419" y="31.9951">&#171;device&#187;</text><text fill="#000000" font-family="sans-serif" font-size="14" font-weight="700" lengthAdjust="spacing" textLength="177.584" x="163.208" y="48.292">Dispositivo do Usu&#225;rio</text><text fill="#000000" font-family="sans-serif" font-size="14" font-weight="700" lengthAdjust="spacing" textLength="144.9766" x="179.5117" y="64.5889">(Smartphone / PC)</text></g><!--cluster Navegador / SO Mobile--><g class="cluster" data-qualified-name="Cliente.Navegador . SO Mobile" data-source-line="13" id="ent0002"><polygon fill="#ADD8E6" points="128,96,138,86,384,86,384,219.89,374,229.89,128,229.89,128,96" style="stroke:#00008B;stroke-width:1;stroke-linejoin:miter;stroke-miterlimit:10;"/><line style="stroke:#00008B;stroke-width:1;" x1="374" x2="384" y1="96" y2="86"/><line style="stroke:#00008B;stroke-width:1;" x1="128" x2="374" y1="96" y2="96"/><line style="stroke:#00008B;stroke-width:1;" x1="374" x2="374" y1="96" y2="229.89"/><text fill="#000000" font-family="sans-serif" font-size="14" font-style="italic" lengthAdjust="spacing" textLength="175.7314" x="164.1343" y="111.9951">&#171;executionEnvironment&#187;</text><text fill="#000000" font-family="sans-serif" font-size="14" font-weight="700" lengthAdjust="spacing" textLength="180.1816" x="161.9092" y="128.292">Navegador / SO Mobile</text></g><!--cluster Nuvem--><g class="cluster" data-qualified-name="Nuvem" data-source-line="19" id="ent0004"><polygon fill="#ADD8E6" points="16,312.89,26,302.89,413,302.89,413,893.37,403,903.37,16,903.37,16,312.89" style="stroke:#00008B;stroke-width:1;stroke-linejoin:miter;stroke-miterlimit:10;"/><line style="stroke:#00008B;stroke-width:1;" x1="403" x2="413" y1="312.89" y2="302.89"/><line style="stroke:#00008B;stroke-width:1;" x1="16" x2="403" y1="312.89" y2="312.89"/><line style="stroke:#00008B;stroke-width:1;" x1="403" x2="403" y1="312.89" y2="903.37"/><text fill="#000000" font-family="sans-serif" font-size="14" font-style="italic" lengthAdjust="spacing" textLength="63.1162" x="178.9419" y="328.8851">&#171;device&#187;</text><text fill="#000000" font-family="sans-serif" font-size="14" font-weight="700" lengthAdjust="spacing" textLength="186.1973" x="117.4014" y="345.182">Ambiente Cloud PsiSoft</text><text fill="#000000" font-family="sans-serif" font-size="14" font-weight="700" lengthAdjust="spacing" textLength="142.9736" x="139.0132" y="361.4789">(AWS / GCP - VPC)</text></g><!--cluster Backend--><g class="cluster" data-qualified-name="Nuvem.Backend" data-source-line="21" id="ent0005"><polygon fill="#ADD8E6" points="40,392.89,50,382.89,389,382.89,389,588.48,379,598.48,40,598.48,40,392.89" style="stroke:#00008B;stroke-width:1;stroke-linejoin:miter;stroke-miterlimit:10;"/><line style="stroke:#00008B;stroke-width:1;" x1="379" x2="389" y1="392.89" y2="382.89"/><line style="stroke:#00008B;stroke-width:1;" x1="40" x2="379" y1="392.89" y2="392.89"/><line style="stroke:#00008B;stroke-width:1;" x1="379" x2="379" y1="392.89" y2="598.48"/><text fill="#000000" font-family="sans-serif" font-size="14" font-style="italic" lengthAdjust="spacing" textLength="63.1162" x="178.9419" y="408.8851">&#171;device&#187;</text><text fill="#000000" font-family="sans-serif" font-size="14" font-weight="700" lengthAdjust="spacing" textLength="273.3281" x="73.8359" y="425.182">Inst&#226;ncia do Servidor de Aplica&#231;&#227;o</text></g><!--cluster Runtime (ex: Node.js / JVM)--><g class="cluster" data-qualified-name="Nuvem.Backend.Runtime .ex. Node.js . JVM." data-source-line="22" id="ent0006"><polygon fill="#ADD8E6" points="72,456.89,82,446.89,365,446.89,365,564.48,355,574.48,72,574.48,72,456.89" style="stroke:#00008B;stroke-width:1;stroke-linejoin:miter;stroke-miterlimit:10;"/><line style="stroke:#00008B;stroke-width:1;" x1="355" x2="365" y1="456.89" y2="446.89"/><line style="stroke:#00008B;stroke-width:1;" x1="72" x2="355" y1="456.89" y2="456.89"/><line style="stroke:#00008B;stroke-width:1;" x1="355" x2="355" y1="456.89" y2="574.48"/><text fill="#000000" font-family="sans-serif" font-size="14" font-style="italic" lengthAdjust="spacing" textLength="175.7314" x="126.6343" y="472.8851">&#171;executionEnvironment&#187;</text><text fill="#000000" font-family="sans-serif" font-size="14" font-weight="700" lengthAdjust="spacing" textLength="217.0957" x="105.9521" y="489.182">Runtime (ex: Node.js / JVM)</text></g><!--cluster DBServer--><g class="cluster" data-qualified-name="Nuvem.DBServer" data-source-line="27" id="ent0008"><polygon fill="#ADD8E6" points="42,657.48,52,647.48,388,647.48,388,869.37,378,879.37,42,879.37,42,657.48" style="stroke:#00008B;stroke-width:1;stroke-linejoin:miter;stroke-miterlimit:10;"/><line style="stroke:#00008B;stroke-width:1;" x1="378" x2="388" y1="657.48" y2="647.48"/><line style="stroke:#00008B;stroke-width:1;" x1="42" x2="378" y1="657.48" y2="657.48"/><line style="stroke:#00008B;stroke-width:1;" x1="378" x2="378" y1="657.48" y2="879.37"/><text fill="#000000" font-family="sans-serif" font-size="14" font-style="italic" lengthAdjust="spacing" textLength="63.1162" x="179.4419" y="673.4751">&#171;device&#187;</text><text fill="#000000" font-family="sans-serif" font-size="14" font-weight="700" lengthAdjust="spacing" textLength="227.7324" x="97.1338" y="689.772">Inst&#226;ncia de Banco de Dados</text></g><!--cluster SGBD (MySQL / PostgreSQL)--><g class="cluster" data-qualified-name="Nuvem.DBServer.SGBD .MySQL . PostgreSQL." data-source-line="28" id="ent0009"><polygon fill="#ADD8E6" points="66,721.48,76,711.48,364,711.48,364,845.37,354,855.37,66,855.37,66,721.48" style="stroke:#00008B;stroke-width:1;stroke-linejoin:miter;stroke-miterlimit:10;"/><line style="stroke:#00008B;stroke-width:1;" x1="354" x2="364" y1="721.48" y2="711.48"/><line style="stroke:#00008B;stroke-width:1;" x1="66" x2="354" y1="721.48" y2="721.48"/><line style="stroke:#00008B;stroke-width:1;" x1="354" x2="354" y1="721.48" y2="855.37"/><text fill="#000000" font-family="sans-serif" font-size="14" font-style="italic" lengthAdjust="spacing" textLength="175.7314" x="123.1343" y="737.4751">&#171;executionEnvironment&#187;</text><text fill="#000000" font-family="sans-serif" font-size="14" font-weight="700" lengthAdjust="spacing" textLength="222.5918" x="99.7041" y="753.772">SGBD (MySQL / PostgreSQL)</text></g><!--cluster Terceiros--><g class="cluster" data-qualified-name="Terceiros" data-source-line="35" id="ent0011"><polygon fill="#ADD8E6" points="437,665.63,447,655.63,1430,655.63,1430,861.22,1420,871.22,437,871.22,437,665.63" style="stroke:#00008B;stroke-width:1;stroke-linejoin:miter;stroke-miterlimit:10;"/><line style="stroke:#00008B;stroke-width:1;" x1="1420" x2="1430" y1="665.63" y2="655.63"/><line style="stroke:#00008B;stroke-width:1;" x1="437" x2="1420" y1="665.63" y2="665.63"/><line style="stroke:#00008B;stroke-width:1;" x1="1420" x2="1420" y1="665.63" y2="871.22"/><text fill="#000000" font-family="sans-serif" font-size="14" font-style="italic" lengthAdjust="spacing" textLength="63.1162" x="897.9419" y="681.6251">&#171;device&#187;</text><text fill="#000000" font-family="sans-serif" font-size="14" font-weight="700" lengthAdjust="spacing" textLength="214.6826" x="822.1587" y="697.922">Infraestrutura de Terceiros</text></g><!--cluster Servidores CFP--><g class="cluster" data-qualified-name="Terceiros.Servidores CFP" data-source-line="37" id="ent0012"><polygon fill="#ADD8E6" points="461,729.63,471,719.63,656,719.63,656,837.22,646,847.22,461,847.22,461,729.63" style="stroke:#00008B;stroke-width:1;stroke-linejoin:miter;stroke-miterlimit:10;"/><line style="stroke:#00008B;stroke-width:1;" x1="646" x2="656" y1="729.63" y2="719.63"/><line style="stroke:#00008B;stroke-width:1;" x1="461" x2="646" y1="729.63" y2="729.63"/><line style="stroke:#00008B;stroke-width:1;" x1="646" x2="646" y1="729.63" y2="847.22"/><text fill="#000000" font-family="sans-serif" font-size="14" font-style="italic" lengthAdjust="spacing" textLength="63.1162" x="522.9419" y="745.6251">&#171;device&#187;</text><text fill="#000000" font-family="sans-serif" font-size="14" font-weight="700" lengthAdjust="spacing" textLength="119.752" x="494.624" y="761.922">Servidores CFP</text></g><!--cluster Servidores Meta--><g class="cluster" data-qualified-name="Terceiros.Servidores Meta" data-source-line="41" id="ent0014"><polygon fill="#ADD8E6" points="680,729.63,690,719.63,885,719.63,885,837.22,875,847.22,680,847.22,680,729.63" style="stroke:#00008B;stroke-width:1;stroke-linejoin:miter;stroke-miterlimit:10;"/><line style="stroke:#00008B;stroke-width:1;" x1="875" x2="885" y1="729.63" y2="719.63"/><line style="stroke:#00008B;stroke-width:1;" x1="680" x2="875" y1="729.63" y2="729.63"/><line style="stroke:#00008B;stroke-width:1;" x1="875" x2="875" y1="729.63" y2="847.22"/><text fill="#000000" font-family="sans-serif" font-size="14" font-style="italic" lengthAdjust="spacing" textLength="63.1162" x="746.9419" y="745.6251">&#171;device&#187;</text><text fill="#000000" font-family="sans-serif" font-size="14" font-weight="700" lengthAdjust="spacing" textLength="129.2197" x="713.8901" y="761.922">Servidores Meta</text></g><!--cluster Provedor de IA--><g class="cluster" data-qualified-name="Terceiros.Provedor de IA" data-source-line="45" id="ent0016"><polygon fill="#ADD8E6" points="909,729.63,919,719.63,1119,719.63,1119,837.22,1109,847.22,909,847.22,909,729.63" style="stroke:#00008B;stroke-width:1;stroke-linejoin:miter;stroke-miterlimit:10;"/><line style="stroke:#00008B;stroke-width:1;" x1="1109" x2="1119" y1="729.63" y2="719.63"/><line style="stroke:#00008B;stroke-width:1;" x1="909" x2="1109" y1="729.63" y2="729.63"/><line style="stroke:#00008B;stroke-width:1;" x1="1109" x2="1109" y1="729.63" y2="847.22"/><text fill="#000000" font-family="sans-serif" font-size="14" font-style="italic" lengthAdjust="spacing" textLength="63.1162" x="978.4419" y="745.6251">&#171;device&#187;</text><text fill="#000000" font-family="sans-serif" font-size="14" font-weight="700" lengthAdjust="spacing" textLength="117.2568" x="951.3716" y="761.922">Provedor de IA</text></g><!--cluster Gateway de Pagamento--><g class="cluster" data-qualified-name="Terceiros.Gateway de Pagamento" data-source-line="49" id="ent0018"><polygon fill="#ADD8E6" points="1143,729.63,1153,719.63,1406,719.63,1406,837.22,1396,847.22,1143,847.22,1143,729.63" style="stroke:#00008B;stroke-width:1;stroke-linejoin:miter;stroke-miterlimit:10;"/><line style="stroke:#00008B;stroke-width:1;" x1="1396" x2="1406" y1="729.63" y2="719.63"/><line style="stroke:#00008B;stroke-width:1;" x1="1143" x2="1396" y1="729.63" y2="729.63"/><line style="stroke:#00008B;stroke-width:1;" x1="1396" x2="1396" y1="729.63" y2="847.22"/><text fill="#000000" font-family="sans-serif" font-size="14" font-style="italic" lengthAdjust="spacing" textLength="63.1162" x="1238.9419" y="745.6251">&#171;device&#187;</text><text fill="#000000" font-family="sans-serif" font-size="14" font-weight="700" lengthAdjust="spacing" textLength="187.4346" x="1176.7827" y="761.922">Gateway de Pagamento</text></g><!--entity UI--><g class="entity" data-qualified-name="Cliente.Navegador . SO Mobile.UI" data-source-line="14" id="ent0003"><rect fill="#E3F2FD" height="71.8906" rx="2.5" ry="2.5" style="stroke:#1E88E5;stroke-width:0.5;" width="145.0557" x="183.47" y="142"/><polygon fill="#E3F2FD" points="311.5257,147,311.5257,161,323.5257,161,323.5257,153,317.5257,147,311.5257,147" style="stroke:#1E88E5;stroke-width:0.5;stroke-linejoin:miter;stroke-miterlimit:10;"/><line style="stroke:#1E88E5;stroke-width:0.5;" x1="317.5257" x2="317.5257" y1="147" y2="153"/><line style="stroke:#1E88E5;stroke-width:0.5;" x1="323.5257" x2="317.5257" y1="153" y2="153"/><text fill="#000000" font-family="sans-serif" font-size="14" font-style="italic" lengthAdjust="spacing" textLength="73.1309" x="214.4324" y="167.9951">&#171;artefato&#187;</text><text fill="#000000" font-family="sans-serif" font-size="14" lengthAdjust="spacing" textLength="115.0557" x="193.47" y="184.292">Frontend PsiSoft</text><text fill="#000000" font-family="sans-serif" font-size="14" lengthAdjust="spacing" textLength="74.8535" x="193.47" y="200.5889">(PWA/App)</text></g><!--entity API--><g class="entity" data-qualified-name="Nuvem.Backend.Runtime .ex. Node.js . JVM..API" data-source-line="23" id="ent0007"><rect fill="#E3F2FD" height="55.5938" rx="2.5" ry="2.5" style="stroke:#1E88E5;stroke-width:0.5;" width="185.7158" x="163.14" y="502.89"/><polygon fill="#E3F2FD" points="331.8558,507.89,331.8558,521.89,343.8558,521.89,343.8558,513.89,337.8558,507.89,331.8558,507.89" style="stroke:#1E88E5;stroke-width:0.5;stroke-linejoin:miter;stroke-miterlimit:10;"/><line style="stroke:#1E88E5;stroke-width:0.5;" x1="337.8558" x2="337.8558" y1="507.89" y2="513.89"/><line style="stroke:#1E88E5;stroke-width:0.5;" x1="343.8558" x2="337.8558" y1="513.89" y2="513.89"/><text fill="#000000" font-family="sans-serif" font-size="14" font-style="italic" lengthAdjust="spacing" textLength="73.1309" x="214.4325" y="528.8851">&#171;artefato&#187;</text><text fill="#000000" font-family="sans-serif" font-size="14" lengthAdjust="spacing" textLength="155.7158" x="173.14" y="545.182">API PsiSoft Execut&#225;vel</text></g><!--entity Dados--><g class="entity" data-qualified-name="Nuvem.DBServer.SGBD .MySQL . PostgreSQL..Dados" data-source-line="29" id="ent0010"><rect fill="#E3F2FD" height="71.8906" rx="2.5" ry="2.5" style="stroke:#1E88E5;stroke-width:0.5;" width="208.2949" x="135.85" y="767.48"/><polygon fill="#E3F2FD" points="327.1449,772.48,327.1449,786.48,339.1449,786.48,339.1449,778.48,333.1449,772.48,327.1449,772.48" style="stroke:#1E88E5;stroke-width:0.5;stroke-linejoin:miter;stroke-miterlimit:10;"/><line style="stroke:#1E88E5;stroke-width:0.5;" x1="333.1449" x2="333.1449" y1="772.48" y2="778.48"/><line style="stroke:#1E88E5;stroke-width:0.5;" x1="339.1449" x2="333.1449" y1="778.48" y2="778.48"/><text fill="#000000" font-family="sans-serif" font-size="14" font-style="italic" lengthAdjust="spacing" textLength="73.1309" x="198.432" y="793.4751">&#171;artefato&#187;</text><text fill="#000000" font-family="sans-serif" font-size="14" lengthAdjust="spacing" textLength="126.3486" x="145.85" y="809.772">Esquema e Dados</text><text fill="#000000" font-family="sans-serif" font-size="14" lengthAdjust="spacing" textLength="178.2949" x="145.85" y="826.0689">Criptografados (AES-256)</text></g><!--entity ePsi--><g class="entity" data-qualified-name="Terceiros.Servidores CFP.ePsi" data-source-line="38" id="ent0013"><rect fill="#E3F2FD" height="55.5938" rx="2.5" ry="2.5" style="stroke:#1E88E5;stroke-width:0.5;" width="105.1309" x="477.43" y="775.63"/><polygon fill="#E3F2FD" points="565.5609,780.63,565.5609,794.63,577.5609,794.63,577.5609,786.63,571.5609,780.63,565.5609,780.63" style="stroke:#1E88E5;stroke-width:0.5;stroke-linejoin:miter;stroke-miterlimit:10;"/><line style="stroke:#1E88E5;stroke-width:0.5;" x1="571.5609" x2="571.5609" y1="780.63" y2="786.63"/><line style="stroke:#1E88E5;stroke-width:0.5;" x1="577.5609" x2="571.5609" y1="786.63" y2="786.63"/><text fill="#000000" font-family="sans-serif" font-size="14" font-style="italic" lengthAdjust="spacing" textLength="73.1309" x="488.43" y="801.6251">&#171;artefato&#187;</text><text fill="#000000" font-family="sans-serif" font-size="14" lengthAdjust="spacing" textLength="59.8896" x="495.0506" y="817.922">API e-Psi</text></g><!--entity Wpp--><g class="entity" data-qualified-name="Terceiros.Servidores Meta.Wpp" data-source-line="42" id="ent0015"><rect fill="#E3F2FD" height="55.5938" rx="2.5" ry="2.5" style="stroke:#1E88E5;stroke-width:0.5;" width="128.0273" x="695.99" y="775.63"/><polygon fill="#E3F2FD" points="807.0173,780.63,807.0173,794.63,819.0173,794.63,819.0173,786.63,813.0173,780.63,807.0173,780.63" style="stroke:#1E88E5;stroke-width:0.5;stroke-linejoin:miter;stroke-miterlimit:10;"/><line style="stroke:#1E88E5;stroke-width:0.5;" x1="813.0173" x2="813.0173" y1="780.63" y2="786.63"/><line style="stroke:#1E88E5;stroke-width:0.5;" x1="819.0173" x2="813.0173" y1="786.63" y2="786.63"/><text fill="#000000" font-family="sans-serif" font-size="14" font-style="italic" lengthAdjust="spacing" textLength="73.1309" x="718.4382" y="801.6251">&#171;artefato&#187;</text><text fill="#000000" font-family="sans-serif" font-size="14" lengthAdjust="spacing" textLength="98.0273" x="705.99" y="817.922">API WhatsApp</text></g><!--entity IA--><g class="entity" data-qualified-name="Terceiros.Provedor de IA.IA" data-source-line="46" id="ent0017"><rect fill="#E3F2FD" height="55.5938" rx="2.5" ry="2.5" style="stroke:#1E88E5;stroke-width:0.5;" width="178.0938" x="924.95" y="775.63"/><polygon fill="#E3F2FD" points="1086.0438,780.63,1086.0438,794.63,1098.0438,794.63,1098.0438,786.63,1092.0438,780.63,1086.0438,780.63" style="stroke:#1E88E5;stroke-width:0.5;stroke-linejoin:miter;stroke-miterlimit:10;"/><line style="stroke:#1E88E5;stroke-width:0.5;" x1="1092.0438" x2="1092.0438" y1="780.63" y2="786.63"/><line style="stroke:#1E88E5;stroke-width:0.5;" x1="1098.0438" x2="1092.0438" y1="786.63" y2="786.63"/><text fill="#000000" font-family="sans-serif" font-size="14" font-style="italic" lengthAdjust="spacing" textLength="73.1309" x="972.4314" y="801.6251">&#171;artefato&#187;</text><text fill="#000000" font-family="sans-serif" font-size="14" lengthAdjust="spacing" textLength="148.0938" x="934.95" y="817.922">Motor de Transcri&#231;&#227;o</text></g><!--entity Pgto--><g class="entity" data-qualified-name="Terceiros.Gateway de Pagamento.Pgto" data-source-line="50" id="ent0019"><rect fill="#E3F2FD" height="55.5938" rx="2.5" ry="2.5" style="stroke:#1E88E5;stroke-width:0.5;" width="192.6885" x="1158.66" y="775.63"/><polygon fill="#E3F2FD" points="1334.3485,780.63,1334.3485,794.63,1346.3485,794.63,1346.3485,786.63,1340.3485,780.63,1334.3485,780.63" style="stroke:#1E88E5;stroke-width:0.5;stroke-linejoin:miter;stroke-miterlimit:10;"/><line style="stroke:#1E88E5;stroke-width:0.5;" x1="1340.3485" x2="1340.3485" y1="780.63" y2="786.63"/><line style="stroke:#1E88E5;stroke-width:0.5;" x1="1346.3485" x2="1340.3485" y1="786.63" y2="786.63"/><text fill="#000000" font-family="sans-serif" font-size="14" font-style="italic" lengthAdjust="spacing" textLength="73.1309" x="1213.4388" y="801.6251">&#171;artefato&#187;</text><text fill="#000000" font-family="sans-serif" font-size="14" lengthAdjust="spacing" textLength="162.6885" x="1168.66" y="817.922">Processador Financeiro</text></g><!--link UI to API--><g class="link" data-entity-1="ent0003" data-entity-2="ent0007" data-link-type="association" data-source-line="59" id="lnk20"><path d="M256,214.18 C256,284.18 256,439.45 256,502.39" fill="none" id="UI-API" style="stroke:#181818;stroke-width:1;"/><text fill="#000000" font-family="sans-serif" font-size="13" lengthAdjust="spacing" textLength="118.5425" x="257" y="282.9569">&#171;HTTPS / TLS 1.3&#187;</text></g><!--link API to Dados--><g class="link" data-entity-1="ent0007" data-entity-2="ent0010" data-link-type="association" data-source-line="60" id="lnk21"><path d="M254.39,558.88 C251.48,608.23 245.32,712.45 242.08,767.18" fill="none" id="API-Dados" style="stroke:#181818;stroke-width:1;"/><text fill="#000000" font-family="sans-serif" font-size="13" lengthAdjust="spacing" textLength="155.5493" x="252" y="627.5469">&#171;TCP/IP / Rede Privada&#187;</text></g><!--link API to ePsi--><g class="link" data-entity-1="ent0007" data-entity-2="ent0013" data-link-type="association" data-source-line="63" id="lnk22"><path d="M328.24,558.83 C357.79,572.4 390.86,590.99 416,614.48 C466.33,661.51 502.36,735.66 519.23,775.3" fill="none" id="API-ePsi" style="stroke:#181818;stroke-width:1;"/><text fill="#000000" font-family="sans-serif" font-size="13" lengthAdjust="spacing" textLength="103.7397" x="434" y="627.5469">&#171;HTTPS / REST&#187;</text></g><!--link API to Wpp--><g class="link" data-entity-1="ent0007" data-entity-2="ent0015" data-link-type="association" data-source-line="64" id="lnk23"><path d="M349.24,544.9 C422.48,558.88 524.24,586.55 599,639.48 C655.48,679.46 709.56,740.37 738.41,775.29" fill="none" id="API-Wpp" style="stroke:#181818;stroke-width:1;"/><text fill="#000000" font-family="sans-serif" font-size="13" lengthAdjust="spacing" textLength="103.7397" x="584" y="627.5469">&#171;HTTPS / REST&#187;</text></g><!--link API to IA--><g class="link" data-entity-1="ent0007" data-entity-2="ent0017" data-link-type="association" data-source-line="65" id="lnk24"><path d="M349.11,532.93 C468.84,538 680.32,558.86 840,639.48 C905.58,672.59 963.87,738.12 993.45,775.2" fill="none" id="API-IA" style="stroke:#181818;stroke-width:1;"/><text fill="#000000" font-family="sans-serif" font-size="13" lengthAdjust="spacing" textLength="103.7397" x="812" y="627.5469">&#171;HTTPS / REST&#187;</text></g><!--link API to Pgto--><g class="link" data-entity-1="ent0007" data-entity-2="ent0019" data-link-type="association" data-source-line="66" id="lnk25"><path d="M349.01,534.73 C543.91,542.47 988,567.68 1119,639.48 C1176.68,671.09 1220.04,737.84 1241.01,775.36" fill="none" id="API-Pgto" style="stroke:#181818;stroke-width:1;"/><text fill="#000000" font-family="sans-serif" font-size="13" lengthAdjust="spacing" textLength="103.7397" x="1097" y="627.5469">&#171;HTTPS / REST&#187;</text></g><?plantuml-src dLNDRjf04Bxp52jo21mWIg9MKPGY6MDIAaZTc8HBBXipc6tiNNTtxIQgyZ1f3pdrs2VWnJgxnlo8aD1Q5hAPsU-RR_wyJrp19opA99qzp_w08ZbJ6MMgekuOJwca2U5Y3EH7XU3Lfk5T94N6nww8XIHz5arrEywWi0ev1bbOEbJUMSFZ2XALcaregBUWxNd7tQDkPmDhxz0xEV7U8LHbdnmsIP-E1S7RZHbm3HKROBN3L2eKqootnYkLpPua4pUy5YH8d4u51t90VBTU9LILXydPsHXo5aAhDO-gGBkWEKJ88_58y9aCn2sBeOhUS0zXffdW7i-P53n1bCLPSor4Lhjeri37n5Si41EDeVWZvy19qoA4gnxYeJjCg1QjbaLuB5GUDKcFJoG5fMMciJh4buo7BAKngJda8iiXgS-5Eybj8SMDHRPAvem2ZFxSzKc3N9UwxT5DrIlIUrpfsKyaeoQF0SYScJoWoKbZ5ff6-IKibYcWqRU1jWIxpBXc2P0Qt9-I2_oh-LLXK9-k1_MTihcUKSVlbVg8Pu_EddA8RJ36jf7E8gNBtoqo0QNmK9Y73XPTMS1EssW7-PgyuBpT8RN1G_2bRtfBA1r9m9V_4UUfRnaabCnZkE6kPAaMaQGJyuvrzuB6qRltHHsjp-k2RISTDuiIpfxH7KCUWWm1er6LCWrhRRRgONaMRw_sJDabk43ShbzzEMNhTOG6Lj9I03wyD0dREGQWwKuaeodL2WVEyepIT0SQNueSvWtVSzva6GXT-0ubvIgKR3aUFMS7kdEguJjzC0W-ZQZf4V4cASOOWb9sFtKPnzur9RAaVgJ5rhNoOUSBdLsQC3ujkiOLISRBsSTEL4hWuCm_6TtPRuKsLVyt1aEn1jl39IQv6O1oi-E6R3JiP9-Yfe_3eMyssh0Vu6VW6AKP2peKis1SXgv_qFFHvn9CGYNBwPYY8t8Pz6ZncVFkBPSg8MmFhf9SUi5moM1QPxiL2xtTQ0koQVuB?></g></svg>